<svg width="383" height="11" viewBox="0 0 383 11" fill="none" xmlns="http://www.w3.org/2000/svg">
<line x1="29.6162" y1="5.66739" x2="383" y2="5.66742" stroke="white" stroke-opacity="0.5" stroke-width="1.01996"/>
<path d="M25.8502 0.574158L29.6162 4.04657V7.34531L25.8502 10.8178H0.0533447V0.574158H25.8502Z" fill="white" fill-opacity="0.5"/>
<path d="M8.48757 8.17737H7.40131L9.05645 3.38286H10.3628L12.0156 8.17737H10.9293L9.72833 4.47848H9.69088L8.48757 8.17737ZM8.41967 6.29281H10.9855V7.08409H8.41967V6.29281ZM12.4975 3.38286L13.6563 7.02556H13.7008L14.862 3.38286H15.9857L14.3329 8.17737H13.0266L11.3715 3.38286H12.4975ZM19.109 4.93265C19.0762 4.81871 19.0302 4.71805 18.9709 4.63065C18.9115 4.54169 18.839 4.46677 18.7531 4.40591C18.6689 4.34348 18.5721 4.29587 18.4628 4.2631C18.3552 4.23033 18.2358 4.21394 18.1047 4.21394C17.8596 4.21394 17.6442 4.27481 17.4585 4.39654C17.2744 4.51828 17.1308 4.69542 17.0278 4.92796C16.9248 5.15895 16.8733 5.44144 16.8733 5.77543C16.8733 6.10942 16.924 6.39347 17.0254 6.62758C17.1269 6.86169 17.2705 7.04039 17.4562 7.16369C17.6419 7.28542 17.8612 7.34629 18.114 7.34629C18.3434 7.34629 18.5393 7.30571 18.7016 7.22455C18.8655 7.14184 18.9904 7.02556 19.0762 6.87573C19.1636 6.72591 19.2073 6.54876 19.2073 6.34431L19.4133 6.37474H18.1772V5.61156H20.1835V6.21555C20.1835 6.63694 20.0946 6.99903 19.9166 7.30181C19.7387 7.60303 19.4937 7.83557 19.1815 7.99945C18.8694 8.16176 18.512 8.24292 18.1093 8.24292C17.6599 8.24292 17.265 8.14381 16.9248 7.9456C16.5845 7.74583 16.3192 7.46256 16.1288 7.09579C15.9399 6.72747 15.8455 6.29047 15.8455 5.7848C15.8455 5.39618 15.9017 5.0497 16.0141 4.74536C16.128 4.43946 16.2872 4.18038 16.4917 3.96813C16.6961 3.75587 16.9341 3.59433 17.2057 3.48352C17.4772 3.37271 17.7714 3.31731 18.0883 3.31731C18.3598 3.31731 18.6127 3.35711 18.8468 3.4367C19.0809 3.51474 19.2885 3.62555 19.4695 3.76913C19.6521 3.91272 19.8012 4.08362 19.9166 4.28183C20.0321 4.47848 20.1063 4.69542 20.139 4.93265H19.109Z" fill="white"/>
</svg>
