<svg version="1.2" xmlns="http://www.w3.org/2000/svg" viewBox="0 0 59 60" width="59" height="60">
	<title>bassLogo-svg</title>
	<style>
		.s0 { fill: #ffffff;stroke: #ffffff;stroke-width: .5 } 
		.s1 { fill: #ffffff } 
	</style>
	<path id="Layer" class="s0" d="m35.7 0.6c8.5 2.9 12.9 9.3 12.9 17.1 0 9.9-7.6 15.6-16.5 16.1-10.3 0-16.9-7.8-16.9-16.1 0-4.4 0.5-5.6 2-8.7h8.2c-2.4 2.5-3.9 4.5-3.9 8.7 0 4.1 3.9 9.7 10.6 9.7 6.8 0 9.6-6.3 9.6-9.7 0-3.2-1.4-7.7-7.4-10.9h-34v-6.2z"/>
	<path id="Layer" class="s1" d="m48 32.3l3.1 5.4c-14.7 11.9-23.3 11.8-39.4 0.8l3.3-5.7c12.9 10.9 20.4 10 33-0.5z"/>
	<path id="Layer" class="s1" d="m55.8 44.4l3.3 4.6c-14.8 14.4-36.1 14.7-52 1.1l3.2-5.7c12.6 12.6 32.7 12.2 45.5 0z"/>
</svg>