<svg width="59" height="60" viewBox="0 0 59 60" fill="none" xmlns="http://www.w3.org/2000/svg">
<path d="M0.325012 59.3644V53.1738H34.3274C40.2895 50.0363 41.725 45.4844 41.725 42.3402C41.725 38.8751 38.8688 32.5991 32.0521 32.5991C25.3745 32.5991 21.4764 38.1963 21.4764 42.3402C21.4764 46.4841 23.019 48.4707 25.3625 50.9828H17.2083C15.7295 47.9006 15.1964 46.7438 15.1964 42.3402C15.1964 33.9839 21.7626 26.2187 32.0521 26.2187C40.9761 26.7032 48.5605 32.377 48.5605 42.3402C48.5605 50.1252 44.2048 56.5322 35.6622 59.3644H0.325012Z" fill="white" stroke="white" stroke-width="0.464804"/>
<path d="M15.0024 27.1653L11.7258 21.5337C27.7966 10.5449 36.4451 10.4097 51.1473 22.2504L47.9731 27.6773C35.3858 17.182 27.891 16.2946 15.0024 27.1653Z" fill="white"/>
<path d="M9.26842 16.6188L6.09422 10.8847C22.0325 -2.67802 43.273 -2.42644 58.1101 12.011L54.8335 16.6188C41.9749 4.39422 21.8813 3.99637 9.26842 16.6188Z" fill="white"/>
</svg>
