<svg width="13" height="13" viewBox="0 0 13 13" fill="none" xmlns="http://www.w3.org/2000/svg">
<path d="M9.23403 7.75C9.28403 7.3375 9.32153 6.925 9.32153 6.5C9.32153 6.075 9.28403 5.6625 9.23403 5.25H11.3465C11.4465 5.65 11.509 6.06875 11.509 6.5C11.509 6.93125 11.4465 7.35 11.3465 7.75M8.12778 11.225C8.50278 10.5312 8.79028 9.78125 8.99028 9H10.834C10.234 10.0312 9.27778 10.8312 8.12778 11.225ZM7.97153 7.75H5.04653C4.98403 7.3375 4.94653 6.925 4.94653 6.5C4.94653 6.075 4.98403 5.65625 5.04653 5.25H7.97153C8.02778 5.65625 8.07153 6.075 8.07153 6.5C8.07153 6.925 8.02778 7.3375 7.97153 7.75ZM6.50903 11.475C5.99028 10.725 5.57153 9.89375 5.31528 9H7.70278C7.44653 9.89375 7.02778 10.725 6.50903 11.475ZM4.00903 4H2.18403C2.77778 2.9625 3.74028 2.1625 4.88403 1.775C4.50903 2.46875 4.22778 3.21875 4.00903 4ZM2.18403 9H4.00903C4.22778 9.78125 4.50903 10.5312 4.88403 11.225C3.74028 10.8312 2.77778 10.0312 2.18403 9ZM1.67153 7.75C1.57153 7.35 1.50903 6.93125 1.50903 6.5C1.50903 6.06875 1.57153 5.65 1.67153 5.25H3.78403C3.73403 5.6625 3.69653 6.075 3.69653 6.5C3.69653 6.925 3.73403 7.3375 3.78403 7.75M6.50903 1.51875C7.02778 2.26875 7.44653 3.10625 7.70278 4H5.31528C5.57153 3.10625 5.99028 2.26875 6.50903 1.51875ZM10.834 4H8.99028C8.79028 3.21875 8.50278 2.46875 8.12778 1.775C9.27778 2.16875 10.234 2.9625 10.834 4ZM6.50903 0.25C3.05278 0.25 0.259033 3.0625 0.259033 6.5C0.259033 8.1576 0.917513 9.74732 2.08962 10.9194C2.66998 11.4998 3.35898 11.9602 4.11726 12.2742C4.87555 12.5883 5.68827 12.75 6.50903 12.75C8.16664 12.75 9.75635 12.0915 10.9285 10.9194C12.1006 9.74732 12.759 8.1576 12.759 6.5C12.759 5.67924 12.5974 4.86651 12.2833 4.10823C11.9692 3.34994 11.5088 2.66095 10.9285 2.08058C10.3481 1.50022 9.65909 1.03984 8.9008 0.725753C8.14252 0.411661 7.32979 0.25 6.50903 0.25Z" fill="white"/>
</svg>
