<svg width="347" height="188" viewBox="0 0 347 188" fill="none" xmlns="http://www.w3.org/2000/svg">
<path d="M1.73706 99.1005C2.72441 85.053 7.9574 67.4934 32.8389 61.4731C57.7204 55.4527 61.9661 39.9 60.9787 32.8762C63.4471 20.8354 74.0119 -2.0421 96.5238 2.77422C119.036 7.59053 194.766 4.78101 229.818 2.77422C233.767 2.77422 244.036 4.58034 253.514 11.8048C262.993 19.0293 271.287 8.79461 274.249 2.77422H314.237C322.136 3.27592 338.23 9.9987 339.415 32.8762C340.6 55.7537 345.833 70.5037 348.301 75.019V187.901" stroke="white" stroke-width="3"/>
<path opacity="0.2" d="M32.8389 61.473C7.9574 67.4934 2.72441 85.053 1.73706 99.1005V187.901H348.301V75.019C345.833 70.5037 340.6 55.7537 339.415 32.8762C338.23 9.99869 322.136 3.27592 314.237 2.77422H274.249C271.287 8.79461 262.993 19.0293 253.514 11.8048C244.036 4.58034 233.767 2.77422 229.818 2.77422C194.766 4.78101 119.036 7.59053 96.5238 2.77422C74.0119 -2.0421 63.4471 20.8354 60.9787 32.8762C61.9661 39.9 57.7204 55.4527 32.8389 61.473Z" fill="url(#paint0_linear_52_43)"/>
<defs>
<linearGradient id="paint0_linear_52_43" x1="175.019" y1="2.11804" x2="175.019" y2="187.901" gradientUnits="userSpaceOnUse">
<stop offset="0.552563" stop-color="white"/>
<stop offset="1" stop-color="white" stop-opacity="0"/>
</linearGradient>
</defs>
</svg>
