<svg width="11" height="16" viewBox="0 0 11 16" fill="none" xmlns="http://www.w3.org/2000/svg">
<path d="M5.50916 3.81503C5.99741 3.81503 6.46567 4.00899 6.81092 4.35424C7.15617 4.69949 7.35013 5.16775 7.35013 5.65601C7.35013 5.89777 7.30251 6.13716 7.20999 6.36052C7.11748 6.58387 6.98187 6.78682 6.81092 6.95777C6.63997 7.12872 6.43702 7.26433 6.21367 7.35684C5.99031 7.44936 5.75092 7.49698 5.50916 7.49698C5.0209 7.49698 4.55264 7.30302 4.20739 6.95777C3.86214 6.61252 3.66818 6.14426 3.66818 5.65601C3.66818 5.16775 3.86214 4.69949 4.20739 4.35424C4.55264 4.00899 5.0209 3.81503 5.50916 3.81503ZM5.50916 0.501282C6.87627 0.501282 8.1874 1.04437 9.1541 2.01107C10.1208 2.97776 10.6639 4.28889 10.6639 5.65601C10.6639 9.52205 5.50916 15.2291 5.50916 15.2291C5.50916 15.2291 0.354431 9.52205 0.354431 5.65601C0.354431 4.28889 0.897517 2.97776 1.86421 2.01107C2.83091 1.04437 4.14204 0.501282 5.50916 0.501282M5.50916 1.97406C4.53264 1.97406 3.59613 2.36198 2.90563 3.05248C2.21513 3.74298 1.82721 4.67949 1.82721 5.65601C1.82721 6.3924 1.82721 7.86517 5.50916 12.8063C9.1911 7.86517 9.1911 6.3924 9.1911 5.65601C9.1911 4.67949 8.80318 3.74298 8.11268 3.05248C7.42219 2.36198 6.48567 1.97406 5.50916 1.97406V1.97406Z" fill="white"/>
</svg>
