<svg width="260" height="48" viewBox="0 0 260 48" fill="none" xmlns="http://www.w3.org/2000/svg">
<path d="M1.92562 12.6013V0.964893H5.9938C6.8044 0.964893 7.47296 1.10505 7.99948 1.38535C8.526 1.66186 8.91804 2.03497 9.17562 2.50467C9.43319 2.97058 9.56198 3.48762 9.56198 4.0558C9.56198 4.5558 9.47296 4.96868 9.29493 5.29444C9.12069 5.6202 8.88963 5.87777 8.60175 6.06717C8.31766 6.25656 8.00895 6.39671 7.67562 6.48762V6.60126C8.03168 6.62398 8.38963 6.74898 8.74948 6.97626C9.10933 7.20353 9.41047 7.52929 9.65289 7.95353C9.89531 8.37777 10.0165 8.89671 10.0165 9.51035C10.0165 10.0937 9.88395 10.6183 9.6188 11.0842C9.35365 11.5501 8.93509 11.9194 8.36312 12.1922C7.79115 12.4649 7.04683 12.6013 6.13016 12.6013H1.92562ZM3.33471 11.3513H6.13016C7.05062 11.3513 7.70403 11.1732 8.09039 10.8172C8.48054 10.4573 8.67562 10.0217 8.67562 9.51035C8.67562 9.11641 8.57524 8.75277 8.37448 8.41944C8.17372 8.08232 7.88774 7.81338 7.51653 7.61262C7.14531 7.40808 6.70592 7.3058 6.19834 7.3058H3.33471V11.3513ZM3.33471 6.07853H5.94834C6.37259 6.07853 6.75516 5.9952 7.09607 5.82853C7.44077 5.66186 7.7135 5.42701 7.91425 5.12398C8.1188 4.82095 8.22107 4.46489 8.22107 4.0558C8.22107 3.54444 8.04304 3.11073 7.68698 2.75467C7.33092 2.39482 6.76653 2.21489 5.9938 2.21489H3.33471V6.07853ZM13.8382 12.8058C13.2852 12.8058 12.7833 12.7016 12.3325 12.4933C11.8818 12.2812 11.5238 11.9763 11.2587 11.5785C10.9935 11.177 10.861 10.6922 10.861 10.124C10.861 9.62398 10.9594 9.21868 11.1564 8.90808C11.3534 8.59368 11.6166 8.34747 11.9462 8.16944C12.2757 7.99141 12.6394 7.85883 13.0371 7.77171C13.4386 7.6808 13.842 7.60883 14.2473 7.5558C14.7776 7.48762 15.2075 7.43648 15.5371 7.40239C15.8704 7.36451 16.1129 7.30201 16.2644 7.21489C16.4197 7.12777 16.4973 6.97626 16.4973 6.76035V6.71489C16.4973 6.15429 16.3439 5.71868 16.0371 5.40808C15.7341 5.09747 15.2738 4.94217 14.6564 4.94217C14.0163 4.94217 13.5144 5.08232 13.1507 5.36262C12.7871 5.64292 12.5314 5.94217 12.3837 6.26035L11.111 5.8058C11.3382 5.2755 11.6413 4.86262 12.02 4.56717C12.4026 4.26792 12.8193 4.05959 13.27 3.94217C13.7246 3.82095 14.1716 3.76035 14.611 3.76035C14.8913 3.76035 15.2132 3.79444 15.5769 3.86262C15.9443 3.92701 16.2985 4.06148 16.6394 4.26603C16.9841 4.47058 17.27 4.77929 17.4973 5.19217C17.7246 5.60505 17.8382 6.15808 17.8382 6.85126V12.6013H16.4973V11.4194H16.4291C16.3382 11.6088 16.1867 11.8115 15.9746 12.0274C15.7625 12.2433 15.4803 12.427 15.128 12.5785C14.7757 12.73 14.3458 12.8058 13.8382 12.8058ZM14.0428 11.6013C14.5731 11.6013 15.02 11.4971 15.3837 11.2888C15.7511 11.0804 16.0276 10.8115 16.2132 10.4819C16.4026 10.1524 16.4973 9.8058 16.4973 9.44217V8.21489C16.4405 8.28308 16.3155 8.34558 16.1223 8.40239C15.9329 8.45542 15.7132 8.50277 15.4632 8.54444C15.217 8.58232 14.9765 8.61641 14.7416 8.64671C14.5106 8.67323 14.3231 8.69595 14.1791 8.71489C13.8307 8.76035 13.5049 8.83421 13.2019 8.93648C12.9026 9.03497 12.6602 9.18459 12.4746 9.38535C12.2928 9.58232 12.2019 9.85126 12.2019 10.1922C12.2019 10.6581 12.3742 11.0103 12.7189 11.249C13.0674 11.4838 13.5087 11.6013 14.0428 11.6013ZM20.7466 7.35126V12.6013H19.4057V3.87398H20.7011V5.23762H20.8148C21.0193 4.79444 21.3299 4.43838 21.7466 4.16944C22.1632 3.89671 22.7011 3.76035 23.3602 3.76035C23.9511 3.76035 24.4682 3.88156 24.9114 4.12398C25.3545 4.36262 25.6992 4.72626 25.9454 5.21489C26.1917 5.69974 26.3148 6.31338 26.3148 7.0558V12.6013H24.9739V7.14671C24.9739 6.46111 24.7958 5.92701 24.4398 5.54444C24.0837 5.15808 23.5951 4.96489 22.9739 4.96489C22.5458 4.96489 22.1632 5.0577 21.8261 5.2433C21.4928 5.42891 21.2295 5.69974 21.0364 6.0558C20.8432 6.41186 20.7466 6.84368 20.7466 7.35126ZM31.1805 12.7831C30.4532 12.7831 29.8112 12.5994 29.2544 12.2319C28.6975 11.8607 28.2619 11.338 27.9475 10.6638C27.6332 9.98573 27.476 9.18459 27.476 8.26035C27.476 7.34368 27.6332 6.54823 27.9475 5.87398C28.2619 5.19974 28.6994 4.67891 29.26 4.31148C29.8207 3.94406 30.4684 3.76035 31.2032 3.76035C31.7714 3.76035 32.2203 3.85505 32.5498 4.04444C32.8832 4.23005 33.1369 4.44217 33.3112 4.6808C33.4892 4.91565 33.6275 5.10883 33.726 5.26035H33.8396V0.964893H35.1805V12.6013H33.885V11.2603H33.726C33.6275 11.4194 33.4873 11.6202 33.3055 11.8626C33.1237 12.1013 32.8642 12.3153 32.5271 12.5047C32.19 12.6903 31.7411 12.7831 31.1805 12.7831ZM31.3623 11.5785C31.9002 11.5785 32.3547 11.4384 32.726 11.1581C33.0972 10.874 33.3794 10.4819 33.5725 9.98194C33.7657 9.47815 33.8623 8.89671 33.8623 8.23762C33.8623 7.58611 33.7676 7.01603 33.5782 6.52739C33.3888 6.03497 33.1085 5.65239 32.7373 5.37967C32.3661 5.10315 31.9078 4.96489 31.3623 4.96489C30.7941 4.96489 30.3207 5.11073 29.9419 5.40239C29.5669 5.69027 29.2847 6.08232 29.0953 6.57853C28.9097 7.07095 28.8169 7.62398 28.8169 8.23762C28.8169 8.85883 28.9116 9.42323 29.101 9.9308C29.2941 10.4346 29.5782 10.8361 29.9532 11.1353C30.332 11.4308 30.8017 11.5785 31.3623 11.5785ZM38.9198 12.6013L36.2607 3.87398H37.6698L39.5562 10.5558H39.6471L41.5107 3.87398H42.9425L44.7835 10.5331H44.8744L46.7607 3.87398H48.1698L45.5107 12.6013H44.1925L42.2835 5.89671H42.1471L40.238 12.6013H38.9198ZM49.0625 12.6013V3.87398H50.4035V12.6013H49.0625ZM49.7444 2.41944C49.483 2.41944 49.2576 2.33042 49.0682 2.15239C48.8826 1.97436 48.7898 1.76035 48.7898 1.51035C48.7898 1.26035 48.8826 1.04633 49.0682 0.868302C49.2576 0.690272 49.483 0.601257 49.7444 0.601257C50.0057 0.601257 50.2292 0.690272 50.4148 0.868302C50.6042 1.04633 50.6989 1.26035 50.6989 1.51035C50.6989 1.76035 50.6042 1.97436 50.4148 2.15239C50.2292 2.33042 50.0057 2.41944 49.7444 2.41944ZM55.2749 12.7831C54.5476 12.7831 53.9056 12.5994 53.3487 12.2319C52.7919 11.8607 52.3563 11.338 52.0419 10.6638C51.7275 9.98573 51.5703 9.18459 51.5703 8.26035C51.5703 7.34368 51.7275 6.54823 52.0419 5.87398C52.3563 5.19974 52.7938 4.67891 53.3544 4.31148C53.915 3.94406 54.5628 3.76035 55.2976 3.76035C55.8658 3.76035 56.3147 3.85505 56.6442 4.04444C56.9775 4.23005 57.2313 4.44217 57.4056 4.6808C57.5836 4.91565 57.7218 5.10883 57.8203 5.26035H57.934V0.964893H59.2749V12.6013H57.9794V11.2603H57.8203C57.7218 11.4194 57.5817 11.6202 57.3999 11.8626C57.2181 12.1013 56.9586 12.3153 56.6215 12.5047C56.2843 12.6903 55.8355 12.7831 55.2749 12.7831ZM55.4567 11.5785C55.9946 11.5785 56.4491 11.4384 56.8203 11.1581C57.1915 10.874 57.4737 10.4819 57.6669 9.98194C57.8601 9.47815 57.9567 8.89671 57.9567 8.23762C57.9567 7.58611 57.862 7.01603 57.6726 6.52739C57.4832 6.03497 57.2029 5.65239 56.8317 5.37967C56.4605 5.10315 56.0022 4.96489 55.4567 4.96489C54.8885 4.96489 54.415 5.11073 54.0362 5.40239C53.6612 5.69027 53.379 6.08232 53.1897 6.57853C53.004 7.07095 52.9112 7.62398 52.9112 8.23762C52.9112 8.85883 53.0059 9.42323 53.1953 9.9308C53.3885 10.4346 53.6726 10.8361 54.0476 11.1353C54.4264 11.4308 54.8961 11.5785 55.4567 11.5785ZM64.8324 3.87398V5.01035H60.3097V3.87398H64.8324ZM61.6278 1.78308H62.9687V10.1013C62.9687 10.48 63.0237 10.7641 63.1335 10.9535C63.2472 11.1391 63.3911 11.2641 63.5653 11.3285C63.7434 11.3891 63.9309 11.4194 64.1278 11.4194C64.2756 11.4194 64.3968 11.4119 64.4915 11.3967C64.5862 11.3778 64.6619 11.3626 64.7187 11.3513L64.9915 12.5558C64.9006 12.5899 64.7737 12.624 64.6108 12.6581C64.4479 12.696 64.2415 12.7149 63.9915 12.7149C63.6127 12.7149 63.2415 12.6335 62.8778 12.4706C62.518 12.3077 62.2187 12.0596 61.9801 11.7263C61.7453 11.3929 61.6278 10.9725 61.6278 10.4649V1.78308ZM67.4978 7.35126V12.6013H66.1569V0.964893H67.4978V5.23762H67.6115C67.816 4.78686 68.1228 4.42891 68.5319 4.16376C68.9448 3.89482 69.494 3.76035 70.1796 3.76035C70.7743 3.76035 71.2952 3.87967 71.7421 4.1183C72.1891 4.35315 72.5357 4.71489 72.7819 5.20353C73.0319 5.68838 73.1569 6.3058 73.1569 7.0558V12.6013H71.816V7.14671C71.816 6.45353 71.6361 5.91755 71.2762 5.53876C70.9202 5.15618 70.4259 4.96489 69.7933 4.96489C69.3539 4.96489 68.96 5.0577 68.6115 5.2433C68.2668 5.42891 67.994 5.69974 67.7933 6.0558C67.5963 6.41186 67.4978 6.84368 67.4978 7.35126ZM80.9182 12.8058C80.3652 12.8058 79.8633 12.7016 79.4125 12.4933C78.9618 12.2812 78.6038 11.9763 78.3387 11.5785C78.0735 11.177 77.941 10.6922 77.941 10.124C77.941 9.62398 78.0394 9.21868 78.2364 8.90808C78.4334 8.59368 78.6966 8.34747 79.0262 8.16944C79.3557 7.99141 79.7194 7.85883 80.1171 7.77171C80.5186 7.6808 80.922 7.60883 81.3273 7.5558C81.8576 7.48762 82.2875 7.43648 82.6171 7.40239C82.9504 7.36451 83.1928 7.30201 83.3444 7.21489C83.4997 7.12777 83.5773 6.97626 83.5773 6.76035V6.71489C83.5773 6.15429 83.4239 5.71868 83.1171 5.40808C82.8141 5.09747 82.3538 4.94217 81.7364 4.94217C81.0963 4.94217 80.5944 5.08232 80.2307 5.36262C79.8671 5.64292 79.6114 5.94217 79.4637 6.26035L78.191 5.8058C78.4182 5.2755 78.7213 4.86262 79.1 4.56717C79.4826 4.26792 79.8993 4.05959 80.35 3.94217C80.8046 3.82095 81.2516 3.76035 81.691 3.76035C81.9713 3.76035 82.2932 3.79444 82.6569 3.86262C83.0243 3.92701 83.3785 4.06148 83.7194 4.26603C84.0641 4.47058 84.35 4.77929 84.5773 5.19217C84.8046 5.60505 84.9182 6.15808 84.9182 6.85126V12.6013H83.5773V11.4194H83.5091C83.4182 11.6088 83.2667 11.8115 83.0546 12.0274C82.8425 12.2433 82.5603 12.427 82.208 12.5785C81.8557 12.73 81.4258 12.8058 80.9182 12.8058ZM81.1228 11.6013C81.6531 11.6013 82.1 11.4971 82.4637 11.2888C82.8311 11.0804 83.1076 10.8115 83.2932 10.4819C83.4826 10.1524 83.5773 9.8058 83.5773 9.44217V8.21489C83.5205 8.28308 83.3955 8.34558 83.2023 8.40239C83.0129 8.45542 82.7932 8.50277 82.5432 8.54444C82.297 8.58232 82.0565 8.61641 81.8216 8.64671C81.5906 8.67323 81.4031 8.69595 81.2591 8.71489C80.9107 8.76035 80.5849 8.83421 80.2819 8.93648C79.9826 9.03497 79.7402 9.18459 79.5546 9.38535C79.3728 9.58232 79.2819 9.85126 79.2819 10.1922C79.2819 10.6581 79.4542 11.0103 79.7989 11.249C80.1474 11.4838 80.5887 11.6013 81.1228 11.6013ZM87.8266 7.35126V12.6013H86.4857V3.87398H87.7811V5.23762H87.8948C88.0993 4.79444 88.4099 4.43838 88.8266 4.16944C89.2432 3.89671 89.7811 3.76035 90.4402 3.76035C91.0311 3.76035 91.5482 3.88156 91.9914 4.12398C92.4345 4.36262 92.7792 4.72626 93.0254 5.21489C93.2717 5.69974 93.3948 6.31338 93.3948 7.0558V12.6013H92.0539V7.14671C92.0539 6.46111 91.8758 5.92701 91.5198 5.54444C91.1637 5.15808 90.6751 4.96489 90.0539 4.96489C89.6258 4.96489 89.2432 5.0577 88.9061 5.2433C88.5728 5.42891 88.3095 5.69974 88.1164 6.0558C87.9232 6.41186 87.8266 6.84368 87.8266 7.35126ZM98.2605 12.7831C97.5332 12.7831 96.8912 12.5994 96.3344 12.2319C95.7776 11.8607 95.3419 11.338 95.0276 10.6638C94.7132 9.98573 94.556 9.18459 94.556 8.26035C94.556 7.34368 94.7132 6.54823 95.0276 5.87398C95.3419 5.19974 95.7794 4.67891 96.3401 4.31148C96.9007 3.94406 97.5484 3.76035 98.2832 3.76035C98.8514 3.76035 99.3003 3.85505 99.6298 4.04444C99.9632 4.23005 100.217 4.44217 100.391 4.6808C100.569 4.91565 100.707 5.10883 100.806 5.26035H100.92V0.964893H102.261V12.6013H100.965V11.2603H100.806C100.707 11.4194 100.567 11.6202 100.386 11.8626C100.204 12.1013 99.9442 12.3153 99.6071 12.5047C99.27 12.6903 98.8211 12.7831 98.2605 12.7831ZM98.4423 11.5785C98.9802 11.5785 99.4347 11.4384 99.806 11.1581C100.177 10.874 100.459 10.4819 100.653 9.98194C100.846 9.47815 100.942 8.89671 100.942 8.23762C100.942 7.58611 100.848 7.01603 100.658 6.52739C100.469 6.03497 100.189 5.65239 99.8173 5.37967C99.4461 5.10315 98.9878 4.96489 98.4423 4.96489C97.8741 4.96489 97.4007 5.11073 97.0219 5.40239C96.6469 5.69027 96.3647 6.08232 96.1753 6.57853C95.9897 7.07095 95.8969 7.62398 95.8969 8.23762C95.8969 8.85883 95.9916 9.42323 96.181 9.9308C96.3741 10.4346 96.6582 10.8361 97.0332 11.1353C97.412 11.4308 97.8817 11.5785 98.4423 11.5785ZM107.643 12.6013V3.87398H108.983V12.6013H107.643ZM108.324 2.41944C108.063 2.41944 107.838 2.33042 107.648 2.15239C107.463 1.97436 107.37 1.76035 107.37 1.51035C107.37 1.26035 107.463 1.04633 107.648 0.868302C107.838 0.690272 108.063 0.601257 108.324 0.601257C108.586 0.601257 108.809 0.690272 108.995 0.868302C109.184 1.04633 109.279 1.26035 109.279 1.51035C109.279 1.76035 109.184 1.97436 108.995 2.15239C108.809 2.33042 108.586 2.41944 108.324 2.41944ZM111.9 7.35126V12.6013H110.559V3.87398H111.855V5.23762H111.969C112.173 4.79444 112.484 4.43838 112.9 4.16944C113.317 3.89671 113.855 3.76035 114.514 3.76035C115.105 3.76035 115.622 3.88156 116.065 4.12398C116.508 4.36262 116.853 4.72626 117.099 5.21489C117.345 5.69974 117.469 6.31338 117.469 7.0558V12.6013H116.128V7.14671C116.128 6.46111 115.95 5.92701 115.594 5.54444C115.237 5.15808 114.749 4.96489 114.128 4.96489C113.7 4.96489 113.317 5.0577 112.98 5.2433C112.647 5.42891 112.383 5.69974 112.19 6.0558C111.997 6.41186 111.9 6.84368 111.9 7.35126ZM122.834 3.87398V5.01035H118.312V3.87398H122.834ZM119.63 1.78308H120.971V10.1013C120.971 10.48 121.026 10.7641 121.135 10.9535C121.249 11.1391 121.393 11.2641 121.567 11.3285C121.745 11.3891 121.933 11.4194 122.13 11.4194C122.277 11.4194 122.399 11.4119 122.493 11.3967C122.588 11.3778 122.664 11.3626 122.721 11.3513L122.993 12.5558C122.902 12.5899 122.776 12.624 122.613 12.6581C122.45 12.696 122.243 12.7149 121.993 12.7149C121.615 12.7149 121.243 12.6335 120.88 12.4706C120.52 12.3077 120.221 12.0596 119.982 11.7263C119.747 11.3929 119.63 10.9725 119.63 10.4649V1.78308ZM127.537 12.7831C126.696 12.7831 125.97 12.5975 125.361 12.2263C124.754 11.8513 124.287 11.3285 123.957 10.6581C123.631 9.98383 123.468 9.19974 123.468 8.3058C123.468 7.41186 123.631 6.62398 123.957 5.94217C124.287 5.25656 124.745 4.72247 125.332 4.33989C125.923 3.95353 126.612 3.76035 127.4 3.76035C127.855 3.76035 128.304 3.83611 128.747 3.98762C129.19 4.13914 129.593 4.38535 129.957 4.72626C130.321 5.06338 130.611 5.51035 130.826 6.06717C131.042 6.62398 131.15 7.30959 131.15 8.12398V8.69217H124.423V7.53308H129.787C129.787 7.04065 129.688 6.60126 129.491 6.21489C129.298 5.82853 129.021 5.52361 128.662 5.30012C128.306 5.07664 127.885 4.96489 127.4 4.96489C126.866 4.96489 126.404 5.09747 126.014 5.36262C125.628 5.62398 125.33 5.96489 125.122 6.38535C124.914 6.8058 124.809 7.25656 124.809 7.73762V8.51035C124.809 9.16944 124.923 9.72815 125.15 10.1865C125.381 10.641 125.701 10.9876 126.111 11.2263C126.52 11.4611 126.995 11.5785 127.537 11.5785C127.889 11.5785 128.207 11.5293 128.491 11.4308C128.779 11.3285 129.027 11.177 129.236 10.9763C129.444 10.7717 129.605 10.5179 129.718 10.2149L131.014 10.5785C130.878 11.0179 130.648 11.4043 130.326 11.7376C130.004 12.0672 129.607 12.3247 129.133 12.5103C128.66 12.6922 128.128 12.7831 127.537 12.7831ZM132.31 12.6013V3.87398H133.606V5.19217H133.696C133.856 4.76035 134.143 4.40997 134.56 4.14103C134.977 3.87209 135.446 3.73762 135.969 3.73762C136.068 3.73762 136.191 3.73951 136.338 3.7433C136.486 3.74709 136.598 3.75277 136.674 3.76035V5.12398C136.628 5.11262 136.524 5.09558 136.361 5.07285C136.202 5.04633 136.034 5.03308 135.856 5.03308C135.431 5.03308 135.052 5.12209 134.719 5.30012C134.39 5.47436 134.128 5.71679 133.935 6.02739C133.746 6.33421 133.651 6.68459 133.651 7.07853V12.6013H132.31ZM138.724 7.35126V12.6013H137.383V3.87398H138.679V5.23762H138.792C138.997 4.79444 139.307 4.43838 139.724 4.16944C140.141 3.89671 140.679 3.76035 141.338 3.76035C141.929 3.76035 142.446 3.88156 142.889 4.12398C143.332 4.36262 143.677 4.72626 143.923 5.21489C144.169 5.69974 144.292 6.31338 144.292 7.0558V12.6013H142.951V7.14671C142.951 6.46111 142.773 5.92701 142.417 5.54444C142.061 5.15808 141.573 4.96489 140.951 4.96489C140.523 4.96489 140.141 5.0577 139.804 5.2433C139.47 5.42891 139.207 5.69974 139.014 6.0558C138.821 6.41186 138.724 6.84368 138.724 7.35126ZM149.522 12.7831C148.681 12.7831 147.955 12.5975 147.345 12.2263C146.739 11.8513 146.272 11.3285 145.942 10.6581C145.616 9.98383 145.453 9.19974 145.453 8.3058C145.453 7.41186 145.616 6.62398 145.942 5.94217C146.272 5.25656 146.73 4.72247 147.317 4.33989C147.908 3.95353 148.597 3.76035 149.385 3.76035C149.84 3.76035 150.289 3.83611 150.732 3.98762C151.175 4.13914 151.578 4.38535 151.942 4.72626C152.306 5.06338 152.595 5.51035 152.811 6.06717C153.027 6.62398 153.135 7.30959 153.135 8.12398V8.69217H146.408V7.53308H151.772C151.772 7.04065 151.673 6.60126 151.476 6.21489C151.283 5.82853 151.006 5.52361 150.647 5.30012C150.291 5.07664 149.87 4.96489 149.385 4.96489C148.851 4.96489 148.389 5.09747 147.999 5.36262C147.613 5.62398 147.315 5.96489 147.107 6.38535C146.899 6.8058 146.794 7.25656 146.794 7.73762V8.51035C146.794 9.16944 146.908 9.72815 147.135 10.1865C147.366 10.641 147.686 10.9876 148.095 11.2263C148.505 11.4611 148.98 11.5785 149.522 11.5785C149.874 11.5785 150.192 11.5293 150.476 11.4308C150.764 11.3285 151.012 11.177 151.22 10.9763C151.429 10.7717 151.59 10.5179 151.703 10.2149L152.999 10.5785C152.863 11.0179 152.633 11.4043 152.311 11.7376C151.989 12.0672 151.592 12.3247 151.118 12.5103C150.645 12.6922 150.113 12.7831 149.522 12.7831ZM158.091 3.87398V5.01035H153.568V3.87398H158.091ZM154.886 1.78308H156.227V10.1013C156.227 10.48 156.282 10.7641 156.392 10.9535C156.505 11.1391 156.649 11.2641 156.823 11.3285C157.001 11.3891 157.189 11.4194 157.386 11.4194C157.534 11.4194 157.655 11.4119 157.75 11.3967C157.844 11.3778 157.92 11.3626 157.977 11.3513L158.25 12.5558C158.159 12.5899 158.032 12.624 157.869 12.6581C157.706 12.696 157.5 12.7149 157.25 12.7149C156.871 12.7149 156.5 12.6335 156.136 12.4706C155.776 12.3077 155.477 12.0596 155.238 11.7263C155.003 11.3929 154.886 10.9725 154.886 10.4649V1.78308ZM169.029 5.82853L167.825 6.16944C167.749 5.96868 167.637 5.77361 167.49 5.58421C167.346 5.39103 167.149 5.23194 166.899 5.10694C166.649 4.98194 166.329 4.91944 165.938 4.91944C165.404 4.91944 164.959 5.04255 164.603 5.28876C164.251 5.53118 164.075 5.83989 164.075 6.21489C164.075 6.54823 164.196 6.81148 164.438 7.00467C164.681 7.19785 165.06 7.35883 165.575 7.48762L166.87 7.8058C167.651 7.9952 168.232 8.28497 168.615 8.67512C168.997 9.06148 169.188 9.55959 169.188 10.1694C169.188 10.6694 169.045 11.1164 168.757 11.5103C168.473 11.9043 168.075 12.2149 167.563 12.4422C167.052 12.6694 166.457 12.7831 165.779 12.7831C164.889 12.7831 164.152 12.5899 163.569 12.2035C162.986 11.8172 162.616 11.2528 162.461 10.5103L163.734 10.1922C163.855 10.6619 164.084 11.0141 164.421 11.249C164.762 11.4838 165.207 11.6013 165.757 11.6013C166.382 11.6013 166.878 11.4687 167.245 11.2035C167.616 10.9346 167.802 10.6126 167.802 10.2376C167.802 9.93459 167.696 9.6808 167.484 9.47626C167.272 9.26792 166.946 9.11262 166.507 9.01035L165.052 8.66944C164.253 8.48005 163.666 8.18648 163.291 7.78876C162.92 7.38724 162.734 6.88535 162.734 6.28308C162.734 5.79065 162.872 5.35505 163.149 4.97626C163.429 4.59747 163.81 4.30012 164.291 4.08421C164.776 3.8683 165.325 3.76035 165.938 3.76035C166.802 3.76035 167.48 3.94974 167.973 4.32853C168.469 4.70732 168.821 5.20732 169.029 5.82853ZM173.986 12.7831C173.145 12.7831 172.42 12.5975 171.81 12.2263C171.204 11.8513 170.736 11.3285 170.406 10.6581C170.081 9.98383 169.918 9.19974 169.918 8.3058C169.918 7.41186 170.081 6.62398 170.406 5.94217C170.736 5.25656 171.194 4.72247 171.781 4.33989C172.372 3.95353 173.062 3.76035 173.85 3.76035C174.304 3.76035 174.753 3.83611 175.196 3.98762C175.639 4.13914 176.043 4.38535 176.406 4.72626C176.77 5.06338 177.06 5.51035 177.276 6.06717C177.492 6.62398 177.6 7.30959 177.6 8.12398V8.69217H170.872V7.53308H176.236C176.236 7.04065 176.138 6.60126 175.941 6.21489C175.747 5.82853 175.471 5.52361 175.111 5.30012C174.755 5.07664 174.335 4.96489 173.85 4.96489C173.316 4.96489 172.853 5.09747 172.463 5.36262C172.077 5.62398 171.78 5.96489 171.571 6.38535C171.363 6.8058 171.259 7.25656 171.259 7.73762V8.51035C171.259 9.16944 171.372 9.72815 171.6 10.1865C171.831 10.641 172.151 10.9876 172.56 11.2263C172.969 11.4611 173.444 11.5785 173.986 11.5785C174.338 11.5785 174.656 11.5293 174.941 11.4308C175.228 11.3285 175.477 11.177 175.685 10.9763C175.893 10.7717 176.054 10.5179 176.168 10.2149L177.463 10.5785C177.327 11.0179 177.098 11.4043 176.776 11.7376C176.454 12.0672 176.056 12.3247 175.583 12.5103C175.109 12.6922 174.577 12.7831 173.986 12.7831ZM178.759 12.6013V3.87398H180.055V5.19217H180.146C180.305 4.76035 180.593 4.40997 181.009 4.14103C181.426 3.87209 181.896 3.73762 182.419 3.73762C182.517 3.73762 182.64 3.73951 182.788 3.7433C182.936 3.74709 183.047 3.75277 183.123 3.76035V5.12398C183.078 5.11262 182.973 5.09558 182.811 5.07285C182.651 5.04633 182.483 5.03308 182.305 5.03308C181.881 5.03308 181.502 5.12209 181.169 5.30012C180.839 5.47436 180.578 5.71679 180.384 6.02739C180.195 6.33421 180.1 6.68459 180.1 7.07853V12.6013H178.759ZM191.235 3.87398L188.007 12.6013H186.644L183.416 3.87398H184.871L187.28 10.8285H187.371L189.78 3.87398H191.235ZM192.124 12.6013V3.87398H193.465V12.6013H192.124ZM192.806 2.41944C192.545 2.41944 192.32 2.33042 192.13 2.15239C191.945 1.97436 191.852 1.76035 191.852 1.51035C191.852 1.26035 191.945 1.04633 192.13 0.868302C192.32 0.690272 192.545 0.601257 192.806 0.601257C193.068 0.601257 193.291 0.690272 193.477 0.868302C193.666 1.04633 193.761 1.26035 193.761 1.51035C193.761 1.76035 193.666 1.97436 193.477 2.15239C193.291 2.33042 193.068 2.41944 192.806 2.41944ZM198.587 12.7831C197.769 12.7831 197.064 12.5899 196.473 12.2035C195.882 11.8172 195.428 11.285 195.109 10.6069C194.791 9.92891 194.632 9.15429 194.632 8.28308C194.632 7.39671 194.795 6.61451 195.121 5.93648C195.45 5.25467 195.909 4.72247 196.496 4.33989C197.087 3.95353 197.776 3.76035 198.564 3.76035C199.178 3.76035 199.731 3.87398 200.223 4.10126C200.716 4.32853 201.119 4.64671 201.433 5.0558C201.748 5.46489 201.943 5.94217 202.019 6.48762H200.678C200.575 6.08989 200.348 5.73762 199.996 5.4308C199.647 5.1202 199.178 4.96489 198.587 4.96489C198.064 4.96489 197.606 5.10126 197.212 5.37398C196.822 5.64292 196.517 6.02361 196.297 6.51603C196.081 7.00467 195.973 7.57853 195.973 8.23762C195.973 8.91186 196.079 9.49898 196.291 9.99898C196.507 10.499 196.81 10.8872 197.2 11.1638C197.594 11.4403 198.056 11.5785 198.587 11.5785C198.935 11.5785 199.252 11.5179 199.536 11.3967C199.82 11.2755 200.06 11.1013 200.257 10.874C200.454 10.6467 200.594 10.374 200.678 10.0558H202.019C201.943 10.571 201.755 11.035 201.456 11.4478C201.161 11.8569 200.769 12.1827 200.28 12.4251C199.795 12.6638 199.231 12.7831 198.587 12.7831ZM206.758 12.7831C205.917 12.7831 205.192 12.5975 204.582 12.2263C203.976 11.8513 203.508 11.3285 203.178 10.6581C202.853 9.98383 202.69 9.19974 202.69 8.3058C202.69 7.41186 202.853 6.62398 203.178 5.94217C203.508 5.25656 203.966 4.72247 204.553 4.33989C205.144 3.95353 205.834 3.76035 206.622 3.76035C207.076 3.76035 207.525 3.83611 207.968 3.98762C208.411 4.13914 208.815 4.38535 209.178 4.72626C209.542 5.06338 209.832 5.51035 210.048 6.06717C210.264 6.62398 210.372 7.30959 210.372 8.12398V8.69217H203.644V7.53308H209.008C209.008 7.04065 208.909 6.60126 208.712 6.21489C208.519 5.82853 208.243 5.52361 207.883 5.30012C207.527 5.07664 207.106 4.96489 206.622 4.96489C206.087 4.96489 205.625 5.09747 205.235 5.36262C204.849 5.62398 204.551 5.96489 204.343 6.38535C204.135 6.8058 204.031 7.25656 204.031 7.73762V8.51035C204.031 9.16944 204.144 9.72815 204.372 10.1865C204.603 10.641 204.923 10.9876 205.332 11.2263C205.741 11.4611 206.216 11.5785 206.758 11.5785C207.11 11.5785 207.428 11.5293 207.712 11.4308C208 11.3285 208.248 11.177 208.457 10.9763C208.665 10.7717 208.826 10.5179 208.94 10.2149L210.235 10.5785C210.099 11.0179 209.87 11.4043 209.548 11.7376C209.226 12.0672 208.828 12.3247 208.354 12.5103C207.881 12.6922 207.349 12.7831 206.758 12.7831ZM218.947 3.87398V5.01035H214.424V3.87398H218.947ZM215.742 1.78308H217.083V10.1013C217.083 10.48 217.138 10.7641 217.248 10.9535C217.362 11.1391 217.505 11.2641 217.68 11.3285C217.858 11.3891 218.045 11.4194 218.242 11.4194C218.39 11.4194 218.511 11.4119 218.606 11.3967C218.701 11.3778 218.776 11.3626 218.833 11.3513L219.106 12.5558C219.015 12.5899 218.888 12.624 218.725 12.6581C218.562 12.696 218.356 12.7149 218.106 12.7149C217.727 12.7149 217.356 12.6335 216.992 12.4706C216.632 12.3077 216.333 12.0596 216.094 11.7263C215.86 11.3929 215.742 10.9725 215.742 10.4649V1.78308ZM223.649 12.7831C222.808 12.7831 222.083 12.5975 221.473 12.2263C220.867 11.8513 220.399 11.3285 220.07 10.6581C219.744 9.98383 219.581 9.19974 219.581 8.3058C219.581 7.41186 219.744 6.62398 220.07 5.94217C220.399 5.25656 220.857 4.72247 221.445 4.33989C222.035 3.95353 222.725 3.76035 223.513 3.76035C223.967 3.76035 224.416 3.83611 224.859 3.98762C225.303 4.13914 225.706 4.38535 226.07 4.72626C226.433 5.06338 226.723 5.51035 226.939 6.06717C227.155 6.62398 227.263 7.30959 227.263 8.12398V8.69217H220.535V7.53308H225.899C225.899 7.04065 225.801 6.60126 225.604 6.21489C225.41 5.82853 225.134 5.52361 224.774 5.30012C224.418 5.07664 223.998 4.96489 223.513 4.96489C222.979 4.96489 222.517 5.09747 222.126 5.36262C221.74 5.62398 221.443 5.96489 221.234 6.38535C221.026 6.8058 220.922 7.25656 220.922 7.73762V8.51035C220.922 9.16944 221.035 9.72815 221.263 10.1865C221.494 10.641 221.814 10.9876 222.223 11.2263C222.632 11.4611 223.107 11.5785 223.649 11.5785C224.001 11.5785 224.32 11.5293 224.604 11.4308C224.892 11.3285 225.14 11.177 225.348 10.9763C225.556 10.7717 225.717 10.5179 225.831 10.2149L227.126 10.5785C226.99 11.0179 226.761 11.4043 226.439 11.7376C226.117 12.0672 225.719 12.3247 225.246 12.5103C224.772 12.6922 224.24 12.7831 223.649 12.7831ZM234.604 5.82853L233.4 6.16944C233.324 5.96868 233.212 5.77361 233.065 5.58421C232.921 5.39103 232.724 5.23194 232.474 5.10694C232.224 4.98194 231.904 4.91944 231.513 4.91944C230.979 4.91944 230.534 5.04255 230.178 5.28876C229.826 5.53118 229.65 5.83989 229.65 6.21489C229.65 6.54823 229.771 6.81148 230.013 7.00467C230.256 7.19785 230.635 7.35883 231.15 7.48762L232.445 7.8058C233.226 7.9952 233.807 8.28497 234.19 8.67512C234.572 9.06148 234.763 9.55959 234.763 10.1694C234.763 10.6694 234.62 11.1164 234.332 11.5103C234.048 11.9043 233.65 12.2149 233.138 12.4422C232.627 12.6694 232.032 12.7831 231.354 12.7831C230.464 12.7831 229.727 12.5899 229.144 12.2035C228.561 11.8172 228.191 11.2528 228.036 10.5103L229.309 10.1922C229.43 10.6619 229.659 11.0141 229.996 11.249C230.337 11.4838 230.782 11.6013 231.332 11.6013C231.957 11.6013 232.453 11.4687 232.82 11.2035C233.191 10.9346 233.377 10.6126 233.377 10.2376C233.377 9.93459 233.271 9.6808 233.059 9.47626C232.847 9.26792 232.521 9.11262 232.082 9.01035L230.627 8.66944C229.828 8.48005 229.241 8.18648 228.866 7.78876C228.495 7.38724 228.309 6.88535 228.309 6.28308C228.309 5.79065 228.447 5.35505 228.724 4.97626C229.004 4.59747 229.385 4.30012 229.866 4.08421C230.351 3.8683 230.9 3.76035 231.513 3.76035C232.377 3.76035 233.055 3.94974 233.548 4.32853C234.044 4.70732 234.396 5.20732 234.604 5.82853ZM239.697 3.87398V5.01035H235.175V3.87398H239.697ZM236.493 1.78308H237.834V10.1013C237.834 10.48 237.889 10.7641 237.999 10.9535C238.112 11.1391 238.256 11.2641 238.43 11.3285C238.608 11.3891 238.796 11.4194 238.993 11.4194C239.141 11.4194 239.262 11.4119 239.356 11.3967C239.451 11.3778 239.527 11.3626 239.584 11.3513L239.856 12.5558C239.766 12.5899 239.639 12.624 239.476 12.6581C239.313 12.696 239.106 12.7149 238.856 12.7149C238.478 12.7149 238.106 12.6335 237.743 12.4706C237.383 12.3077 237.084 12.0596 236.845 11.7263C236.61 11.3929 236.493 10.9725 236.493 10.4649V1.78308ZM240.834 12.6013V3.87398H242.175V12.6013H240.834ZM241.516 2.41944C241.255 2.41944 241.029 2.33042 240.84 2.15239C240.654 1.97436 240.562 1.76035 240.562 1.51035C240.562 1.26035 240.654 1.04633 240.84 0.868302C241.029 0.690272 241.255 0.601257 241.516 0.601257C241.778 0.601257 242.001 0.690272 242.187 0.868302C242.376 1.04633 242.471 1.26035 242.471 1.51035C242.471 1.76035 242.376 1.97436 242.187 2.15239C242.001 2.33042 241.778 2.41944 241.516 2.41944ZM245.092 7.35126V12.6013H243.751V3.87398H245.047V5.23762H245.16C245.365 4.79444 245.676 4.43838 246.092 4.16944C246.509 3.89671 247.047 3.76035 247.706 3.76035C248.297 3.76035 248.814 3.88156 249.257 4.12398C249.7 4.36262 250.045 4.72626 250.291 5.21489C250.537 5.69974 250.66 6.31338 250.66 7.0558V12.6013H249.319V7.14671C249.319 6.46111 249.141 5.92701 248.785 5.54444C248.429 5.15808 247.941 4.96489 247.319 4.96489C246.891 4.96489 246.509 5.0577 246.172 5.2433C245.838 5.42891 245.575 5.69974 245.382 6.0558C245.189 6.41186 245.092 6.84368 245.092 7.35126ZM255.753 16.0558C255.106 16.0558 254.549 15.9725 254.083 15.8058C253.617 15.6429 253.229 15.427 252.918 15.1581C252.611 14.8929 252.367 14.6088 252.185 14.3058L253.253 13.5558C253.375 13.7149 253.528 13.8967 253.714 14.1013C253.899 14.3096 254.153 14.4895 254.475 14.641C254.801 14.7963 255.227 14.874 255.753 14.874C256.458 14.874 257.039 14.7035 257.498 14.3626C257.956 14.0217 258.185 13.4876 258.185 12.7603V10.9876H258.072C257.973 11.1467 257.833 11.3437 257.651 11.5785C257.473 11.8096 257.216 12.016 256.878 12.1978C256.545 12.3759 256.094 12.4649 255.526 12.4649C254.822 12.4649 254.189 12.2982 253.628 11.9649C253.072 11.6316 252.63 11.1467 252.305 10.5103C251.983 9.87398 251.822 9.10126 251.822 8.19217C251.822 7.29823 251.979 6.51982 252.293 5.85694C252.608 5.19027 253.045 4.67512 253.606 4.31148C254.166 3.94406 254.814 3.76035 255.549 3.76035C256.117 3.76035 256.568 3.85505 256.901 4.04444C257.238 4.23005 257.496 4.44217 257.674 4.6808C257.856 4.91565 257.996 5.10883 258.094 5.26035H258.231V3.87398H259.526V12.8513C259.526 13.6013 259.356 14.2111 259.015 14.6808C258.678 15.1543 258.223 15.5009 257.651 15.7206C257.083 15.9441 256.45 16.0558 255.753 16.0558ZM255.708 11.2603C256.246 11.2603 256.7 11.1372 257.072 10.891C257.443 10.6448 257.725 10.2907 257.918 9.82853C258.111 9.36641 258.208 8.81338 258.208 8.16944C258.208 7.54065 258.113 6.98573 257.924 6.50467C257.734 6.02361 257.454 5.64671 257.083 5.37398C256.712 5.10126 256.253 4.96489 255.708 4.96489C255.14 4.96489 254.666 5.10883 254.287 5.39671C253.912 5.68459 253.63 6.07095 253.441 6.5558C253.255 7.04065 253.162 7.57853 253.162 8.16944C253.162 8.7755 253.257 9.31148 253.447 9.77739C253.64 10.2395 253.924 10.6032 254.299 10.8683C254.678 11.1297 255.147 11.2603 255.708 11.2603ZM1.7438 28.6013V19.874H3.03925V21.1922H3.13016C3.28925 20.7603 3.57713 20.41 3.9938 20.141C4.41046 19.8721 4.88016 19.7376 5.40289 19.7376C5.50137 19.7376 5.62448 19.7395 5.77221 19.7433C5.91993 19.7471 6.03168 19.7528 6.10743 19.7603V21.124C6.06198 21.1126 5.95781 21.0956 5.79493 21.0728C5.63584 21.0463 5.46728 21.0331 5.28925 21.0331C4.86501 21.0331 4.48622 21.1221 4.15289 21.3001C3.82334 21.4744 3.56198 21.7168 3.3688 22.0274C3.1794 22.3342 3.08471 22.6846 3.08471 23.0785V28.6013H1.7438ZM10.2104 28.7831C9.36948 28.7831 8.6441 28.5975 8.03425 28.2263C7.42819 27.8513 6.96039 27.3285 6.63084 26.6581C6.30509 25.9838 6.14221 25.1997 6.14221 24.3058C6.14221 23.4119 6.30509 22.624 6.63084 21.9422C6.96039 21.2566 7.41872 20.7225 8.00584 20.3399C8.59675 19.9535 9.28615 19.7603 10.074 19.7603C10.5286 19.7603 10.9774 19.8361 11.4206 19.9876C11.8638 20.1391 12.2672 20.3853 12.6308 20.7263C12.9945 21.0634 13.2843 21.5103 13.5002 22.0672C13.7161 22.624 13.824 23.3096 13.824 24.124V24.6922H7.09675V23.5331H12.4604C12.4604 23.0407 12.3619 22.6013 12.1649 22.2149C11.9718 21.8285 11.6952 21.5236 11.3354 21.3001C10.9793 21.0766 10.5589 20.9649 10.074 20.9649C9.53993 20.9649 9.07781 21.0975 8.68766 21.3626C8.3013 21.624 8.00395 21.9649 7.79562 22.3853C7.58728 22.8058 7.48312 23.2566 7.48312 23.7376V24.5103C7.48312 25.1694 7.59675 25.7282 7.82403 26.1865C8.05509 26.641 8.37516 26.9876 8.78425 27.2263C9.19334 27.4611 9.66872 27.5785 10.2104 27.5785C10.5627 27.5785 10.8808 27.5293 11.1649 27.4308C11.4528 27.3285 11.7009 27.177 11.9093 26.9763C12.1176 26.7717 12.2786 26.5179 12.3922 26.2149L13.6877 26.5785C13.5513 27.0179 13.3221 27.4043 13.0002 27.7376C12.6782 28.0672 12.2805 28.3247 11.807 28.5103C11.3335 28.6922 10.8013 28.7831 10.2104 28.7831ZM20.9383 31.874V27.2603H20.8247C20.7262 27.4194 20.5861 27.6202 20.4043 27.8626C20.2224 28.1013 19.963 28.3153 19.6258 28.5047C19.2887 28.6903 18.8399 28.7831 18.2793 28.7831C17.552 28.7831 16.9099 28.5994 16.3531 28.2319C15.7963 27.8607 15.3607 27.338 15.0463 26.6638C14.7319 25.9857 14.5747 25.1846 14.5747 24.2603C14.5747 23.3437 14.7319 22.5482 15.0463 21.874C15.3607 21.1997 15.7982 20.6789 16.3588 20.3115C16.9194 19.9441 17.5671 19.7603 18.302 19.7603C18.8702 19.7603 19.319 19.855 19.6486 20.0444C19.9819 20.23 20.2357 20.4422 20.4099 20.6808C20.588 20.9157 20.7262 21.1088 20.8247 21.2603H20.9838V19.874H22.2793V31.874H20.9383ZM18.4611 27.5785C18.9989 27.5785 19.4535 27.4384 19.8247 27.1581C20.1959 26.874 20.4781 26.4819 20.6713 25.9819C20.8645 25.4782 20.9611 24.8967 20.9611 24.2376C20.9611 23.5861 20.8664 23.016 20.677 22.5274C20.4876 22.035 20.2073 21.6524 19.8361 21.3797C19.4649 21.1032 19.0065 20.9649 18.4611 20.9649C17.8929 20.9649 17.4194 21.1107 17.0406 21.4024C16.6656 21.6903 16.3834 22.0823 16.194 22.5785C16.0084 23.071 15.9156 23.624 15.9156 24.2376C15.9156 24.8588 16.0103 25.4232 16.1997 25.9308C16.3929 26.4346 16.677 26.8361 17.052 27.1353C17.4308 27.4308 17.9005 27.5785 18.4611 27.5785ZM29.3538 25.0331V19.874H30.6947V28.6013H29.3538V27.124H29.2629C29.0583 27.5672 28.7402 27.9441 28.3083 28.2547C27.8765 28.5615 27.3311 28.7149 26.672 28.7149C26.1265 28.7149 25.6417 28.5956 25.2174 28.3569C24.7932 28.1145 24.4599 27.7509 24.2174 27.266C23.975 26.7774 23.8538 26.1619 23.8538 25.4194V19.874H25.1947V25.3285C25.1947 25.9649 25.3727 26.4725 25.7288 26.8513C26.0886 27.23 26.547 27.4194 27.1038 27.4194C27.4371 27.4194 27.7761 27.3342 28.1208 27.1638C28.4693 26.9933 28.761 26.7319 28.9958 26.3797C29.2345 26.0274 29.3538 25.5785 29.3538 25.0331ZM32.2707 28.6013V19.874H33.6116V28.6013H32.2707ZM32.9525 18.4194C32.6911 18.4194 32.4657 18.3304 32.2764 18.1524C32.0907 17.9744 31.9979 17.7603 31.9979 17.5103C31.9979 17.2603 32.0907 17.0463 32.2764 16.8683C32.4657 16.6903 32.6911 16.6013 32.9525 16.6013C33.2139 16.6013 33.4373 16.6903 33.6229 16.8683C33.8123 17.0463 33.907 17.2603 33.907 17.5103C33.907 17.7603 33.8123 17.9744 33.6229 18.1524C33.4373 18.3304 33.2139 18.4194 32.9525 18.4194ZM35.1875 28.6013V19.874H36.483V21.1922H36.5739C36.733 20.7603 37.0209 20.41 37.4375 20.141C37.8542 19.8721 38.3239 19.7376 38.8466 19.7376C38.9451 19.7376 39.0682 19.7395 39.216 19.7433C39.3637 19.7471 39.4754 19.7528 39.5512 19.7603V21.124C39.5057 21.1126 39.4016 21.0956 39.2387 21.0728C39.0796 21.0463 38.911 21.0331 38.733 21.0331C38.3088 21.0331 37.93 21.1221 37.5966 21.3001C37.2671 21.4744 37.0057 21.7168 36.8125 22.0274C36.6232 22.3342 36.5285 22.6846 36.5285 23.0785V28.6013H35.1875ZM43.6541 28.7831C42.8132 28.7831 42.0879 28.5975 41.478 28.2263C40.8719 27.8513 40.4041 27.3285 40.0746 26.6581C39.7488 25.9838 39.586 25.1997 39.586 24.3058C39.586 23.4119 39.7488 22.624 40.0746 21.9422C40.4041 21.2566 40.8625 20.7225 41.4496 20.3399C42.0405 19.9535 42.7299 19.7603 43.5178 19.7603C43.9723 19.7603 44.4212 19.8361 44.8644 19.9876C45.3075 20.1391 45.711 20.3853 46.0746 20.7263C46.4382 21.0634 46.728 21.5103 46.9439 22.0672C47.1598 22.624 47.2678 23.3096 47.2678 24.124V24.6922H40.5405V23.5331H45.9041C45.9041 23.0407 45.8057 22.6013 45.6087 22.2149C45.4155 21.8285 45.139 21.5236 44.7791 21.3001C44.4231 21.0766 44.0026 20.9649 43.5178 20.9649C42.9837 20.9649 42.5216 21.0975 42.1314 21.3626C41.745 21.624 41.4477 21.9649 41.2394 22.3853C41.031 22.8058 40.9269 23.2566 40.9269 23.7376V24.5103C40.9269 25.1694 41.0405 25.7282 41.2678 26.1865C41.4988 26.641 41.8189 26.9876 42.228 27.2263C42.6371 27.4611 43.1125 27.5785 43.6541 27.5785C44.0064 27.5785 44.3246 27.5293 44.6087 27.4308C44.8966 27.3285 45.1447 27.177 45.353 26.9763C45.5613 26.7717 45.7223 26.5179 45.836 26.2149L47.1314 26.5785C46.995 27.0179 46.7659 27.4043 46.4439 27.7376C46.1219 28.0672 45.7242 28.3247 45.2507 28.5103C44.7772 28.6922 44.245 28.7831 43.6541 28.7831ZM54.6094 21.8285L53.4048 22.1694C53.3291 21.9687 53.2173 21.7736 53.0696 21.5842C52.9257 21.391 52.7287 21.2319 52.4787 21.1069C52.2287 20.9819 51.9086 20.9194 51.5185 20.9194C50.9844 20.9194 50.5393 21.0425 50.1832 21.2888C49.831 21.5312 49.6548 21.8399 49.6548 22.2149C49.6548 22.5482 49.776 22.8115 50.0185 23.0047C50.2609 23.1978 50.6397 23.3588 51.1548 23.4876L52.4503 23.8058C53.2306 23.9952 53.812 24.285 54.1946 24.6751C54.5772 25.0615 54.7685 25.5596 54.7685 26.1694C54.7685 26.6694 54.6245 27.1164 54.3366 27.5103C54.0525 27.9043 53.6548 28.2149 53.1435 28.4422C52.6321 28.6694 52.0374 28.7831 51.3594 28.7831C50.4692 28.7831 49.7325 28.5899 49.1491 28.2035C48.5658 27.8172 48.1965 27.2528 48.0412 26.5103L49.3139 26.1922C49.4351 26.6619 49.6643 27.0141 50.0014 27.249C50.3423 27.4838 50.7874 27.6013 51.3366 27.6013C51.9616 27.6013 52.4579 27.4687 52.8253 27.2035C53.1965 26.9346 53.3821 26.6126 53.3821 26.2376C53.3821 25.9346 53.276 25.6808 53.0639 25.4763C52.8518 25.2679 52.526 25.1126 52.0866 25.0103L50.6321 24.6694C49.8329 24.48 49.2457 24.1865 48.8707 23.7888C48.4995 23.3872 48.3139 22.8853 48.3139 22.2831C48.3139 21.7907 48.4522 21.355 48.7287 20.9763C49.009 20.5975 49.3897 20.3001 49.8707 20.0842C50.3556 19.8683 50.9048 19.7603 51.5185 19.7603C52.3821 19.7603 53.0601 19.9497 53.5525 20.3285C54.0488 20.7073 54.401 21.2073 54.6094 21.8285ZM65.7087 21.8285L64.5042 22.1694C64.4284 21.9687 64.3167 21.7736 64.169 21.5842C64.025 21.391 63.8281 21.2319 63.5781 21.1069C63.3281 20.9819 63.008 20.9194 62.6178 20.9194C62.0837 20.9194 61.6387 21.0425 61.2826 21.2888C60.9303 21.5312 60.7542 21.8399 60.7542 22.2149C60.7542 22.5482 60.8754 22.8115 61.1178 23.0047C61.3603 23.1978 61.739 23.3588 62.2542 23.4876L63.5497 23.8058C64.33 23.9952 64.9114 24.285 65.294 24.6751C65.6765 25.0615 65.8678 25.5596 65.8678 26.1694C65.8678 26.6694 65.7239 27.1164 65.436 27.5103C65.1519 27.9043 64.7542 28.2149 64.2428 28.4422C63.7315 28.6694 63.1368 28.7831 62.4587 28.7831C61.5686 28.7831 60.8318 28.5899 60.2485 28.2035C59.6652 27.8172 59.2959 27.2528 59.1406 26.5103L60.4133 26.1922C60.5345 26.6619 60.7637 27.0141 61.1008 27.249C61.4417 27.4838 61.8868 27.6013 62.436 27.6013C63.061 27.6013 63.5572 27.4687 63.9247 27.2035C64.2959 26.9346 64.4815 26.6126 64.4815 26.2376C64.4815 25.9346 64.3754 25.6808 64.1633 25.4763C63.9512 25.2679 63.6254 25.1126 63.186 25.0103L61.7315 24.6694C60.9322 24.48 60.3451 24.1865 59.9701 23.7888C59.5989 23.3872 59.4133 22.8853 59.4133 22.2831C59.4133 21.7907 59.5515 21.355 59.8281 20.9763C60.1084 20.5975 60.489 20.3001 60.9701 20.0842C61.455 19.8683 62.0042 19.7603 62.6178 19.7603C63.4815 19.7603 64.1595 19.9497 64.6519 20.3285C65.1481 20.7073 65.5004 21.2073 65.7087 21.8285ZM70.6654 28.7831C69.8245 28.7831 69.0991 28.5975 68.4892 28.2263C67.8832 27.8513 67.4154 27.3285 67.0858 26.6581C66.7601 25.9838 66.5972 25.1997 66.5972 24.3058C66.5972 23.4119 66.7601 22.624 67.0858 21.9422C67.4154 21.2566 67.8737 20.7225 68.4608 20.3399C69.0517 19.9535 69.7411 19.7603 70.529 19.7603C70.9836 19.7603 71.4324 19.8361 71.8756 19.9876C72.3188 20.1391 72.7222 20.3853 73.0858 20.7263C73.4495 21.0634 73.7392 21.5103 73.9552 22.0672C74.1711 22.624 74.279 23.3096 74.279 24.124V24.6922H67.5517V23.5331H72.9154C72.9154 23.0407 72.8169 22.6013 72.6199 22.2149C72.4267 21.8285 72.1502 21.5236 71.7904 21.3001C71.4343 21.0766 71.0139 20.9649 70.529 20.9649C69.9949 20.9649 69.5328 21.0975 69.1427 21.3626C68.7563 21.624 68.4589 21.9649 68.2506 22.3853C68.0423 22.8058 67.9381 23.2566 67.9381 23.7376V24.5103C67.9381 25.1694 68.0517 25.7282 68.279 26.1865C68.5101 26.641 68.8302 26.9876 69.2392 27.2263C69.6483 27.4611 70.1237 27.5785 70.6654 27.5785C71.0177 27.5785 71.3358 27.5293 71.6199 27.4308C71.9078 27.3285 72.1559 27.177 72.3642 26.9763C72.5726 26.7717 72.7336 26.5179 72.8472 26.2149L74.1427 26.5785C74.0063 27.0179 73.7771 27.4043 73.4552 27.7376C73.1332 28.0672 72.7355 28.3247 72.262 28.5103C71.7885 28.6922 71.2563 28.7831 70.6654 28.7831ZM82.3095 19.874L79.0823 28.6013H77.7186L74.4914 19.874H75.9459L78.355 26.8285H78.4459L80.855 19.874H82.3095ZM86.546 28.7831C85.7051 28.7831 84.9797 28.5975 84.3699 28.2263C83.7638 27.8513 83.296 27.3285 82.9665 26.6581C82.6407 25.9838 82.4778 25.1997 82.4778 24.3058C82.4778 23.4119 82.6407 22.624 82.9665 21.9422C83.296 21.2566 83.7543 20.7225 84.3415 20.3399C84.9324 19.9535 85.6218 19.7603 86.4097 19.7603C86.8642 19.7603 87.3131 19.8361 87.7562 19.9876C88.1994 20.1391 88.6028 20.3853 88.9665 20.7263C89.3301 21.0634 89.6199 21.5103 89.8358 22.0672C90.0517 22.624 90.1597 23.3096 90.1597 24.124V24.6922H83.4324V23.5331H88.796C88.796 23.0407 88.6975 22.6013 88.5006 22.2149C88.3074 21.8285 88.0309 21.5236 87.671 21.3001C87.315 21.0766 86.8945 20.9649 86.4097 20.9649C85.8756 20.9649 85.4134 21.0975 85.0233 21.3626C84.6369 21.624 84.3396 21.9649 84.1312 22.3853C83.9229 22.8058 83.8187 23.2566 83.8187 23.7376V24.5103C83.8187 25.1694 83.9324 25.7282 84.1597 26.1865C84.3907 26.641 84.7108 26.9876 85.1199 27.2263C85.529 27.4611 86.0044 27.5785 86.546 27.5785C86.8983 27.5785 87.2165 27.5293 87.5006 27.4308C87.7884 27.3285 88.0365 27.177 88.2449 26.9763C88.4532 26.7717 88.6142 26.5179 88.7278 26.2149L90.0233 26.5785C89.8869 27.0179 89.6578 27.4043 89.3358 27.7376C89.0138 28.0672 88.6161 28.3247 88.1426 28.5103C87.6691 28.6922 87.1369 28.7831 86.546 28.7831ZM91.3194 28.6013V19.874H92.6149V21.1922H92.7058C92.8649 20.7603 93.1528 20.41 93.5694 20.141C93.9861 19.8721 94.4558 19.7376 94.9785 19.7376C95.077 19.7376 95.2001 19.7395 95.3478 19.7433C95.4956 19.7471 95.6073 19.7528 95.6831 19.7603V21.124C95.6376 21.1126 95.5334 21.0956 95.3706 21.0728C95.2115 21.0463 95.0429 21.0331 94.8649 21.0331C94.4406 21.0331 94.0618 21.1221 93.7285 21.3001C93.399 21.4744 93.1376 21.7168 92.9444 22.0274C92.755 22.3342 92.6603 22.6846 92.6603 23.0785V28.6013H91.3194ZM98.9607 28.8058C98.4077 28.8058 97.9058 28.7016 97.455 28.4933C97.0043 28.2812 96.6463 27.9763 96.3812 27.5785C96.116 27.177 95.9835 26.6922 95.9835 26.124C95.9835 25.624 96.0819 25.2187 96.2789 24.9081C96.4759 24.5937 96.7391 24.3475 97.0687 24.1694C97.3982 23.9914 97.7619 23.8588 98.1596 23.7717C98.5611 23.6808 98.9645 23.6088 99.3698 23.5558C99.9001 23.4876 100.33 23.4365 100.66 23.4024C100.993 23.3645 101.235 23.302 101.387 23.2149C101.542 23.1278 101.62 22.9763 101.62 22.7603V22.7149C101.62 22.1543 101.466 21.7187 101.16 21.4081C100.857 21.0975 100.396 20.9422 99.7789 20.9422C99.1388 20.9422 98.6369 21.0823 98.2732 21.3626C97.9096 21.6429 97.6539 21.9422 97.5062 22.2603L96.2335 21.8058C96.4607 21.2755 96.7638 20.8626 97.1425 20.5672C97.5251 20.2679 97.9418 20.0596 98.3925 19.9422C98.8471 19.821 99.2941 19.7603 99.7335 19.7603C100.014 19.7603 100.336 19.7944 100.699 19.8626C101.067 19.927 101.421 20.0615 101.762 20.266C102.107 20.4706 102.393 20.7793 102.62 21.1922C102.847 21.605 102.961 22.1581 102.961 22.8513V28.6013H101.62V27.4194H101.552C101.461 27.6088 101.309 27.8115 101.097 28.0274C100.885 28.2433 100.603 28.427 100.251 28.5785C99.8982 28.73 99.4683 28.8058 98.9607 28.8058ZM99.1653 27.6013C99.6956 27.6013 100.143 27.4971 100.506 27.2888C100.874 27.0804 101.15 26.8115 101.336 26.4819C101.525 26.1524 101.62 25.8058 101.62 25.4422V24.2149C101.563 24.2831 101.438 24.3456 101.245 24.4024C101.055 24.4554 100.836 24.5028 100.586 24.5444C100.34 24.5823 100.099 24.6164 99.8641 24.6467C99.6331 24.6732 99.4456 24.696 99.3016 24.7149C98.9532 24.7603 98.6274 24.8342 98.3244 24.9365C98.0251 25.035 97.7827 25.1846 97.5971 25.3853C97.4153 25.5823 97.3244 25.8513 97.3244 26.1922C97.3244 26.6581 97.4967 27.0103 97.8414 27.249C98.1899 27.4838 98.6312 27.6013 99.1653 27.6013ZM105.869 16.9649V28.6013H104.528V16.9649H105.869ZM113.633 28.8058C113.08 28.8058 112.578 28.7016 112.128 28.4933C111.677 28.2812 111.319 27.9763 111.054 27.5785C110.789 27.177 110.656 26.6922 110.656 26.124C110.656 25.624 110.754 25.2187 110.951 24.9081C111.148 24.5937 111.412 24.3475 111.741 24.1694C112.071 23.9914 112.434 23.8588 112.832 23.7717C113.234 23.6808 113.637 23.6088 114.042 23.5558C114.573 23.4876 115.003 23.4365 115.332 23.4024C115.665 23.3645 115.908 23.302 116.059 23.2149C116.215 23.1278 116.292 22.9763 116.292 22.7603V22.7149C116.292 22.1543 116.139 21.7187 115.832 21.4081C115.529 21.0975 115.069 20.9422 114.451 20.9422C113.811 20.9422 113.309 21.0823 112.946 21.3626C112.582 21.6429 112.326 21.9422 112.179 22.2603L110.906 21.8058C111.133 21.2755 111.436 20.8626 111.815 20.5672C112.198 20.2679 112.614 20.0596 113.065 19.9422C113.52 19.821 113.967 19.7603 114.406 19.7603C114.686 19.7603 115.008 19.7944 115.372 19.8626C115.739 19.927 116.093 20.0615 116.434 20.266C116.779 20.4706 117.065 20.7793 117.292 21.1922C117.52 21.605 117.633 22.1581 117.633 22.8513V28.6013H116.292V27.4194H116.224C116.133 27.6088 115.982 27.8115 115.77 28.0274C115.557 28.2433 115.275 28.427 114.923 28.5785C114.571 28.73 114.141 28.8058 113.633 28.8058ZM113.838 27.6013C114.368 27.6013 114.815 27.4971 115.179 27.2888C115.546 27.0804 115.823 26.8115 116.008 26.4819C116.198 26.1524 116.292 25.8058 116.292 25.4422V24.2149C116.236 24.2831 116.111 24.3456 115.917 24.4024C115.728 24.4554 115.508 24.5028 115.258 24.5444C115.012 24.5823 114.771 24.6164 114.537 24.6467C114.306 24.6732 114.118 24.696 113.974 24.7149C113.626 24.7603 113.3 24.8342 112.997 24.9365C112.698 25.035 112.455 25.1846 112.27 25.3853C112.088 25.5823 111.997 25.8513 111.997 26.1922C111.997 26.6581 112.169 27.0103 112.514 27.249C112.862 27.4838 113.304 27.6013 113.838 27.6013ZM119.201 31.874V19.874H120.496V21.2603H120.655C120.754 21.1088 120.89 20.9157 121.064 20.6808C121.242 20.4422 121.496 20.23 121.826 20.0444C122.159 19.855 122.61 19.7603 123.178 19.7603C123.913 19.7603 124.561 19.9441 125.121 20.3115C125.682 20.6789 126.119 21.1997 126.434 21.874C126.748 22.5482 126.905 23.3437 126.905 24.2603C126.905 25.1846 126.748 25.9857 126.434 26.6638C126.119 27.338 125.684 27.8607 125.127 28.2319C124.57 28.5994 123.928 28.7831 123.201 28.7831C122.64 28.7831 122.191 28.6903 121.854 28.5047C121.517 28.3153 121.257 28.1013 121.076 27.8626C120.894 27.6202 120.754 27.4194 120.655 27.2603H120.542V31.874H119.201ZM120.519 24.2376C120.519 24.8967 120.615 25.4782 120.809 25.9819C121.002 26.4819 121.284 26.874 121.655 27.1581C122.026 27.4384 122.481 27.5785 123.019 27.5785C123.579 27.5785 124.047 27.4308 124.422 27.1353C124.801 26.8361 125.085 26.4346 125.275 25.9308C125.468 25.4232 125.564 24.8588 125.564 24.2376C125.564 23.624 125.47 23.071 125.28 22.5785C125.095 22.0823 124.812 21.6903 124.434 21.4024C124.059 21.1107 123.587 20.9649 123.019 20.9649C122.473 20.9649 122.015 21.1032 121.644 21.3797C121.273 21.6524 120.992 22.035 120.803 22.5274C120.614 23.016 120.519 23.5861 120.519 24.2376ZM128.071 31.874V19.874H129.366V21.2603H129.525C129.624 21.1088 129.76 20.9157 129.934 20.6808C130.112 20.4422 130.366 20.23 130.696 20.0444C131.029 19.855 131.48 19.7603 132.048 19.7603C132.783 19.7603 133.431 19.9441 133.991 20.3115C134.552 20.6789 134.989 21.1997 135.304 21.874C135.618 22.5482 135.775 23.3437 135.775 24.2603C135.775 25.1846 135.618 25.9857 135.304 26.6638C134.989 27.338 134.554 27.8607 133.997 28.2319C133.44 28.5994 132.798 28.7831 132.071 28.7831C131.51 28.7831 131.061 28.6903 130.724 28.5047C130.387 28.3153 130.127 28.1013 129.946 27.8626C129.764 27.6202 129.624 27.4194 129.525 27.2603H129.412V31.874H128.071ZM129.389 24.2376C129.389 24.8967 129.485 25.4782 129.679 25.9819C129.872 26.4819 130.154 26.874 130.525 27.1581C130.896 27.4384 131.351 27.5785 131.889 27.5785C132.449 27.5785 132.917 27.4308 133.292 27.1353C133.671 26.8361 133.955 26.4346 134.145 25.9308C134.338 25.4232 134.434 24.8588 134.434 24.2376C134.434 23.624 134.34 23.071 134.15 22.5785C133.965 22.0823 133.682 21.6903 133.304 21.4024C132.929 21.1107 132.457 20.9649 131.889 20.9649C131.343 20.9649 130.885 21.1032 130.514 21.3797C130.143 21.6524 129.862 22.035 129.673 22.5274C129.484 23.016 129.389 23.5861 129.389 24.2376ZM140.561 31.874V19.874H141.856V21.2603H142.015C142.114 21.1088 142.25 20.9157 142.424 20.6808C142.602 20.4422 142.856 20.23 143.186 20.0444C143.519 19.855 143.97 19.7603 144.538 19.7603C145.273 19.7603 145.921 19.9441 146.481 20.3115C147.042 20.6789 147.479 21.1997 147.794 21.874C148.108 22.5482 148.265 23.3437 148.265 24.2603C148.265 25.1846 148.108 25.9857 147.794 26.6638C147.479 27.338 147.044 27.8607 146.487 28.2319C145.93 28.5994 145.288 28.7831 144.561 28.7831C144 28.7831 143.551 28.6903 143.214 28.5047C142.877 28.3153 142.617 28.1013 142.436 27.8626C142.254 27.6202 142.114 27.4194 142.015 27.2603H141.902V31.874H140.561ZM141.879 24.2376C141.879 24.8967 141.975 25.4782 142.169 25.9819C142.362 26.4819 142.644 26.874 143.015 27.1581C143.386 27.4384 143.841 27.5785 144.379 27.5785C144.939 27.5785 145.407 27.4308 145.782 27.1353C146.161 26.8361 146.445 26.4346 146.635 25.9308C146.828 25.4232 146.924 24.8588 146.924 24.2376C146.924 23.624 146.83 23.071 146.64 22.5785C146.455 22.0823 146.172 21.6903 145.794 21.4024C145.419 21.1107 144.947 20.9649 144.379 20.9649C143.833 20.9649 143.375 21.1032 143.004 21.3797C142.633 21.6524 142.352 22.035 142.163 22.5274C141.974 23.016 141.879 23.5861 141.879 24.2376ZM153.09 28.7831C152.249 28.7831 151.523 28.5975 150.914 28.2263C150.308 27.8513 149.84 27.3285 149.51 26.6581C149.184 25.9838 149.022 25.1997 149.022 24.3058C149.022 23.4119 149.184 22.624 149.51 21.9422C149.84 21.2566 150.298 20.7225 150.885 20.3399C151.476 19.9535 152.166 19.7603 152.953 19.7603C153.408 19.7603 153.857 19.8361 154.3 19.9876C154.743 20.1391 155.147 20.3853 155.51 20.7263C155.874 21.0634 156.164 21.5103 156.38 22.0672C156.595 22.624 156.703 23.3096 156.703 24.124V24.6922H149.976V23.5331H155.34C155.34 23.0407 155.241 22.6013 155.044 22.2149C154.851 21.8285 154.575 21.5236 154.215 21.3001C153.859 21.0766 153.438 20.9649 152.953 20.9649C152.419 20.9649 151.957 21.0975 151.567 21.3626C151.181 21.624 150.883 21.9649 150.675 22.3853C150.467 22.8058 150.362 23.2566 150.362 23.7376V24.5103C150.362 25.1694 150.476 25.7282 150.703 26.1865C150.934 26.641 151.255 26.9876 151.664 27.2263C152.073 27.4611 152.548 27.5785 153.09 27.5785C153.442 27.5785 153.76 27.5293 154.044 27.4308C154.332 27.3285 154.58 27.177 154.789 26.9763C154.997 26.7717 155.158 26.5179 155.272 26.2149L156.567 26.5785C156.431 27.0179 156.202 27.4043 155.88 27.7376C155.558 28.0672 155.16 28.3247 154.686 28.5103C154.213 28.6922 153.681 28.7831 153.09 28.7831ZM157.863 28.6013V19.874H159.159V21.1922H159.25C159.409 20.7603 159.697 20.41 160.113 20.141C160.53 19.8721 161 19.7376 161.522 19.7376C161.621 19.7376 161.744 19.7395 161.892 19.7433C162.039 19.7471 162.151 19.7528 162.227 19.7603V21.124C162.181 21.1126 162.077 21.0956 161.914 21.0728C161.755 21.0463 161.587 21.0331 161.409 21.0331C160.984 21.0331 160.606 21.1221 160.272 21.3001C159.943 21.4744 159.681 21.7168 159.488 22.0274C159.299 22.3342 159.204 22.6846 159.204 23.0785V28.6013H157.863ZM162.936 28.6013V19.874H164.232V21.2376H164.345C164.527 20.7717 164.821 20.41 165.226 20.1524C165.631 19.891 166.118 19.7603 166.686 19.7603C167.262 19.7603 167.741 19.891 168.124 20.1524C168.51 20.41 168.811 20.7717 169.027 21.2376H169.118C169.342 20.7869 169.677 20.4289 170.124 20.1638C170.571 19.8948 171.107 19.7603 171.732 19.7603C172.512 19.7603 173.15 20.0047 173.647 20.4933C174.143 20.9782 174.391 21.7338 174.391 22.7603V28.6013H173.05V22.7603C173.05 22.1164 172.874 21.6562 172.522 21.3797C172.169 21.1032 171.754 20.9649 171.277 20.9649C170.664 20.9649 170.188 21.1505 169.851 21.5217C169.514 21.8891 169.345 22.355 169.345 22.9194V28.6013H167.982V22.624C167.982 22.1278 167.821 21.7282 167.499 21.4251C167.177 21.1183 166.762 20.9649 166.254 20.9649C165.906 20.9649 165.58 21.0577 165.277 21.2433C164.978 21.4289 164.736 21.6865 164.55 22.016C164.368 22.3418 164.277 22.7187 164.277 23.1467V28.6013H162.936ZM175.963 28.6013V19.874H177.303V28.6013H175.963ZM176.644 18.4194C176.383 18.4194 176.158 18.3304 175.968 18.1524C175.783 17.9744 175.69 17.7603 175.69 17.5103C175.69 17.2603 175.783 17.0463 175.968 16.8683C176.158 16.6903 176.383 16.6013 176.644 16.6013C176.906 16.6013 177.129 16.6903 177.315 16.8683C177.504 17.0463 177.599 17.2603 177.599 17.5103C177.599 17.7603 177.504 17.9744 177.315 18.1524C177.129 18.3304 176.906 18.4194 176.644 18.4194ZM185.061 21.8285L183.857 22.1694C183.781 21.9687 183.669 21.7736 183.521 21.5842C183.378 21.391 183.181 21.2319 182.931 21.1069C182.681 20.9819 182.36 20.9194 181.97 20.9194C181.436 20.9194 180.991 21.0425 180.635 21.2888C180.283 21.5312 180.107 21.8399 180.107 22.2149C180.107 22.5482 180.228 22.8115 180.47 23.0047C180.713 23.1978 181.092 23.3588 181.607 23.4876L182.902 23.8058C183.682 23.9952 184.264 24.285 184.646 24.6751C185.029 25.0615 185.22 25.5596 185.22 26.1694C185.22 26.6694 185.076 27.1164 184.789 27.5103C184.504 27.9043 184.107 28.2149 183.595 28.4422C183.084 28.6694 182.489 28.7831 181.811 28.7831C180.921 28.7831 180.184 28.5899 179.601 28.2035C179.018 27.8172 178.648 27.2528 178.493 26.5103L179.766 26.1922C179.887 26.6619 180.116 27.0141 180.453 27.249C180.794 27.4838 181.239 27.6013 181.789 27.6013C182.414 27.6013 182.91 27.4687 183.277 27.2035C183.648 26.9346 183.834 26.6126 183.834 26.2376C183.834 25.9346 183.728 25.6808 183.516 25.4763C183.304 25.2679 182.978 25.1126 182.539 25.0103L181.084 24.6694C180.285 24.48 179.698 24.1865 179.323 23.7888C178.951 23.3872 178.766 22.8853 178.766 22.2831C178.766 21.7907 178.904 21.355 179.181 20.9763C179.461 20.5975 179.842 20.3001 180.323 20.0842C180.807 19.8683 181.357 19.7603 181.97 19.7603C182.834 19.7603 183.512 19.9497 184.004 20.3285C184.501 20.7073 184.853 21.2073 185.061 21.8285ZM192.541 21.8285L191.336 22.1694C191.26 21.9687 191.149 21.7736 191.001 21.5842C190.857 21.391 190.66 21.2319 190.41 21.1069C190.16 20.9819 189.84 20.9194 189.45 20.9194C188.916 20.9194 188.471 21.0425 188.114 21.2888C187.762 21.5312 187.586 21.8399 187.586 22.2149C187.586 22.5482 187.707 22.8115 187.95 23.0047C188.192 23.1978 188.571 23.3588 189.086 23.4876L190.382 23.8058C191.162 23.9952 191.743 24.285 192.126 24.6751C192.508 25.0615 192.7 25.5596 192.7 26.1694C192.7 26.6694 192.556 27.1164 192.268 27.5103C191.984 27.9043 191.586 28.2149 191.075 28.4422C190.563 28.6694 189.969 28.7831 189.291 28.7831C188.4 28.7831 187.664 28.5899 187.08 28.2035C186.497 27.8172 186.128 27.2528 185.972 26.5103L187.245 26.1922C187.366 26.6619 187.596 27.0141 187.933 27.249C188.274 27.4838 188.719 27.6013 189.268 27.6013C189.893 27.6013 190.389 27.4687 190.757 27.2035C191.128 26.9346 191.313 26.6126 191.313 26.2376C191.313 25.9346 191.207 25.6808 190.995 25.4763C190.783 25.2679 190.457 25.1126 190.018 25.0103L188.563 24.6694C187.764 24.48 187.177 24.1865 186.802 23.7888C186.431 23.3872 186.245 22.8853 186.245 22.2831C186.245 21.7907 186.383 21.355 186.66 20.9763C186.94 20.5975 187.321 20.3001 187.802 20.0842C188.287 19.8683 188.836 19.7603 189.45 19.7603C190.313 19.7603 190.991 19.9497 191.484 20.3285C191.98 20.7073 192.332 21.2073 192.541 21.8285ZM193.838 28.6013V19.874H195.179V28.6013H193.838ZM194.52 18.4194C194.259 18.4194 194.033 18.3304 193.844 18.1524C193.658 17.9744 193.565 17.7603 193.565 17.5103C193.565 17.2603 193.658 17.0463 193.844 16.8683C194.033 16.6903 194.259 16.6013 194.52 16.6013C194.781 16.6013 195.005 16.6903 195.19 16.8683C195.38 17.0463 195.475 17.2603 195.475 17.5103C195.475 17.7603 195.38 17.9744 195.19 18.1524C195.005 18.3304 194.781 18.4194 194.52 18.4194ZM200.3 28.7831C199.513 28.7831 198.821 28.5956 198.227 28.2206C197.636 27.8456 197.174 27.321 196.84 26.6467C196.511 25.9725 196.346 25.1846 196.346 24.2831C196.346 23.374 196.511 22.5804 196.84 21.9024C197.174 21.2244 197.636 20.6978 198.227 20.3228C198.821 19.9478 199.513 19.7603 200.3 19.7603C201.088 19.7603 201.778 19.9478 202.369 20.3228C202.963 20.6978 203.425 21.2244 203.755 21.9024C204.088 22.5804 204.255 23.374 204.255 24.2831C204.255 25.1846 204.088 25.9725 203.755 26.6467C203.425 27.321 202.963 27.8456 202.369 28.2206C201.778 28.5956 201.088 28.7831 200.3 28.7831ZM200.3 27.5785C200.899 27.5785 201.391 27.4251 201.778 27.1183C202.164 26.8115 202.45 26.4081 202.636 25.9081C202.821 25.4081 202.914 24.8664 202.914 24.2831C202.914 23.6997 202.821 23.1562 202.636 22.6524C202.45 22.1486 202.164 21.7414 201.778 21.4308C201.391 21.1202 200.899 20.9649 200.3 20.9649C199.702 20.9649 199.21 21.1202 198.823 21.4308C198.437 21.7414 198.151 22.1486 197.965 22.6524C197.78 23.1562 197.687 23.6997 197.687 24.2831C197.687 24.8664 197.78 25.4081 197.965 25.9081C198.151 26.4081 198.437 26.8115 198.823 27.1183C199.21 27.4251 199.702 27.5785 200.3 27.5785ZM206.763 23.3513V28.6013H205.422V19.874H206.717V21.2376H206.831C207.036 20.7944 207.346 20.4384 207.763 20.1694C208.18 19.8967 208.717 19.7603 209.376 19.7603C209.967 19.7603 210.484 19.8816 210.928 20.124C211.371 20.3626 211.715 20.7263 211.962 21.2149C212.208 21.6997 212.331 22.3134 212.331 23.0558V28.6013H210.99V23.1467C210.99 22.4611 210.812 21.927 210.456 21.5444C210.1 21.1581 209.611 20.9649 208.99 20.9649C208.562 20.9649 208.18 21.0577 207.842 21.2433C207.509 21.4289 207.246 21.6997 207.053 22.0558C206.859 22.4119 206.763 22.8437 206.763 23.3513ZM220.083 21.8285L218.879 22.1694C218.803 21.9687 218.691 21.7736 218.543 21.5842C218.399 21.391 218.202 21.2319 217.952 21.1069C217.702 20.9819 217.382 20.9194 216.992 20.9194C216.458 20.9194 216.013 21.0425 215.657 21.2888C215.305 21.5312 215.129 21.8399 215.129 22.2149C215.129 22.5482 215.25 22.8115 215.492 23.0047C215.735 23.1978 216.113 23.3588 216.629 23.4876L217.924 23.8058C218.704 23.9952 219.286 24.285 219.668 24.6751C220.051 25.0615 220.242 25.5596 220.242 26.1694C220.242 26.6694 220.098 27.1164 219.81 27.5103C219.526 27.9043 219.129 28.2149 218.617 28.4422C218.106 28.6694 217.511 28.7831 216.833 28.7831C215.943 28.7831 215.206 28.5899 214.623 28.2035C214.04 27.8172 213.67 27.2528 213.515 26.5103L214.788 26.1922C214.909 26.6619 215.138 27.0141 215.475 27.249C215.816 27.4838 216.261 27.6013 216.81 27.6013C217.435 27.6013 217.932 27.4687 218.299 27.2035C218.67 26.9346 218.856 26.6126 218.856 26.2376C218.856 25.9346 218.75 25.6808 218.538 25.4763C218.326 25.2679 218 25.1126 217.56 25.0103L216.106 24.6694C215.307 24.48 214.719 24.1865 214.344 23.7888C213.973 23.3872 213.788 22.8853 213.788 22.2831C213.788 21.7907 213.926 21.355 214.202 20.9763C214.483 20.5975 214.863 20.3001 215.344 20.0842C215.829 19.8683 216.379 19.7603 216.992 19.7603C217.856 19.7603 218.534 19.9497 219.026 20.3285C219.523 20.7073 219.875 21.2073 220.083 21.8285ZM228.887 19.874V21.0103H224.182V19.874H228.887ZM225.592 28.6013V18.6694C225.592 18.1694 225.709 17.7528 225.944 17.4194C226.179 17.0861 226.484 16.8361 226.859 16.6694C227.234 16.5028 227.629 16.4194 228.046 16.4194C228.376 16.4194 228.645 16.446 228.853 16.499C229.061 16.552 229.217 16.6013 229.319 16.6467L228.932 17.8058C228.864 17.7831 228.77 17.7547 228.648 17.7206C228.531 17.6865 228.376 17.6694 228.182 17.6694C227.739 17.6694 227.419 17.7812 227.222 18.0047C227.029 18.2282 226.932 18.5558 226.932 18.9876V28.6013H225.592ZM233.072 28.7831C232.285 28.7831 231.593 28.5956 230.999 28.2206C230.408 27.8456 229.945 27.321 229.612 26.6467C229.283 25.9725 229.118 25.1846 229.118 24.2831C229.118 23.374 229.283 22.5804 229.612 21.9024C229.945 21.2244 230.408 20.6978 230.999 20.3228C231.593 19.9478 232.285 19.7603 233.072 19.7603C233.86 19.7603 234.55 19.9478 235.141 20.3228C235.735 20.6978 236.197 21.2244 236.527 21.9024C236.86 22.5804 237.027 23.374 237.027 24.2831C237.027 25.1846 236.86 25.9725 236.527 26.6467C236.197 27.321 235.735 27.8456 235.141 28.2206C234.55 28.5956 233.86 28.7831 233.072 28.7831ZM233.072 27.5785C233.671 27.5785 234.163 27.4251 234.55 27.1183C234.936 26.8115 235.222 26.4081 235.408 25.9081C235.593 25.4081 235.686 24.8664 235.686 24.2831C235.686 23.6997 235.593 23.1562 235.408 22.6524C235.222 22.1486 234.936 21.7414 234.55 21.4308C234.163 21.1202 233.671 20.9649 233.072 20.9649C232.474 20.9649 231.981 21.1202 231.595 21.4308C231.209 21.7414 230.923 22.1486 230.737 22.6524C230.552 23.1562 230.459 23.6997 230.459 24.2831C230.459 24.8664 230.552 25.4081 230.737 25.9081C230.923 26.4081 231.209 26.8115 231.595 27.1183C231.981 27.4251 232.474 27.5785 233.072 27.5785ZM238.194 28.6013V19.874H239.489V21.1922H239.58C239.739 20.7603 240.027 20.41 240.444 20.141C240.86 19.8721 241.33 19.7376 241.853 19.7376C241.951 19.7376 242.074 19.7395 242.222 19.7433C242.37 19.7471 242.482 19.7528 242.557 19.7603V21.124C242.512 21.1126 242.408 21.0956 242.245 21.0728C242.086 21.0463 241.917 21.0331 241.739 21.0331C241.315 21.0331 240.936 21.1221 240.603 21.3001C240.273 21.4744 240.012 21.7168 239.819 22.0274C239.629 22.3342 239.535 22.6846 239.535 23.0785V28.6013H238.194ZM249.455 28.8058C248.902 28.8058 248.4 28.7016 247.949 28.4933C247.499 28.2812 247.141 27.9763 246.876 27.5785C246.61 27.177 246.478 26.6922 246.478 26.124C246.478 25.624 246.576 25.2187 246.773 24.9081C246.97 24.5937 247.234 24.3475 247.563 24.1694C247.893 23.9914 248.256 23.8588 248.654 23.7717C249.055 23.6808 249.459 23.6088 249.864 23.5558C250.395 23.4876 250.824 23.4365 251.154 23.4024C251.487 23.3645 251.73 23.302 251.881 23.2149C252.037 23.1278 252.114 22.9763 252.114 22.7603V22.7149C252.114 22.1543 251.961 21.7187 251.654 21.4081C251.351 21.0975 250.891 20.9422 250.273 20.9422C249.633 20.9422 249.131 21.0823 248.768 21.3626C248.404 21.6429 248.148 21.9422 248.001 22.2603L246.728 21.8058C246.955 21.2755 247.258 20.8626 247.637 20.5672C248.02 20.2679 248.436 20.0596 248.887 19.9422C249.341 19.821 249.788 19.7603 250.228 19.7603C250.508 19.7603 250.83 19.7944 251.194 19.8626C251.561 19.927 251.915 20.0615 252.256 20.266C252.601 20.4706 252.887 20.7793 253.114 21.1922C253.341 21.605 253.455 22.1581 253.455 22.8513V28.6013H252.114V27.4194H252.046C251.955 27.6088 251.804 27.8115 251.591 28.0274C251.379 28.2433 251.097 28.427 250.745 28.5785C250.393 28.73 249.963 28.8058 249.455 28.8058ZM249.66 27.6013C250.19 27.6013 250.637 27.4971 251.001 27.2888C251.368 27.0804 251.645 26.8115 251.83 26.4819C252.02 26.1524 252.114 25.8058 252.114 25.4422V24.2149C252.057 24.2831 251.932 24.3456 251.739 24.4024C251.55 24.4554 251.33 24.5028 251.08 24.5444C250.834 24.5823 250.593 24.6164 250.359 24.6467C250.127 24.6732 249.94 24.696 249.796 24.7149C249.448 24.7603 249.122 24.8342 248.819 24.9365C248.52 25.035 248.277 25.1846 248.091 25.3853C247.91 25.5823 247.819 25.8513 247.819 26.1922C247.819 26.6581 247.991 27.0103 248.336 27.249C248.684 27.4838 249.126 27.6013 249.66 27.6013ZM256.363 16.9649V28.6013H255.023V16.9649H256.363ZM259.28 16.9649V28.6013H257.939V16.9649H259.28ZM5.63016 35.874V37.0103H0.925616V35.874H5.63016ZM2.33471 44.6013V34.6694C2.33471 34.1694 2.45213 33.7528 2.68698 33.4194C2.92183 33.0861 3.22675 32.8361 3.60175 32.6694C3.97675 32.5028 4.37259 32.4194 4.78925 32.4194C5.1188 32.4194 5.38774 32.446 5.59607 32.499C5.8044 32.552 5.95971 32.6013 6.06198 32.6467L5.67562 33.8058C5.60743 33.7831 5.51274 33.7547 5.39153 33.7206C5.2741 33.6865 5.1188 33.6694 4.92562 33.6694C4.48243 33.6694 4.16236 33.7812 3.96539 34.0047C3.77221 34.2282 3.67562 34.5558 3.67562 34.9876V44.6013H2.33471ZM9.92914 44.7831C9.08823 44.7831 8.36285 44.5975 7.753 44.2263C7.14694 43.8513 6.67914 43.3285 6.34959 42.6581C6.02384 41.9838 5.86096 41.1997 5.86096 40.3058C5.86096 39.4119 6.02384 38.624 6.34959 37.9422C6.67914 37.2566 7.13747 36.7225 7.72459 36.3399C8.3155 35.9535 9.0049 35.7603 9.79278 35.7603C10.2473 35.7603 10.6962 35.8361 11.1394 35.9876C11.5825 36.1391 11.986 36.3853 12.3496 36.7263C12.7132 37.0634 13.003 37.5103 13.2189 38.0672C13.4348 38.624 13.5428 39.3096 13.5428 40.124V40.6922H6.8155V39.5331H12.1791C12.1791 39.0407 12.0807 38.6013 11.8837 38.2149C11.6905 37.8285 11.414 37.5236 11.0541 37.3001C10.6981 37.0766 10.2776 36.9649 9.79278 36.9649C9.25868 36.9649 8.79656 37.0975 8.40641 37.3626C8.02005 37.624 7.7227 37.9649 7.51437 38.3853C7.30603 38.8058 7.20187 39.2566 7.20187 39.7376V40.5103C7.20187 41.1694 7.3155 41.7282 7.54278 42.1865C7.77384 42.641 8.09391 42.9876 8.503 43.2263C8.91209 43.4611 9.38747 43.5785 9.92914 43.5785C10.2814 43.5785 10.5996 43.5293 10.8837 43.4308C11.1716 43.3285 11.4197 43.177 11.628 42.9763C11.8363 42.7717 11.9973 42.5179 12.111 42.2149L13.4064 42.5785C13.27 43.0179 13.0409 43.4043 12.7189 43.7376C12.3969 44.0672 11.9992 44.3247 11.5257 44.5103C11.0522 44.6922 10.52 44.7831 9.92914 44.7831ZM17.2707 44.8058C16.7177 44.8058 16.2158 44.7016 15.765 44.4933C15.3143 44.2812 14.9563 43.9763 14.6912 43.5785C14.426 43.177 14.2935 42.6922 14.2935 42.124C14.2935 41.624 14.3919 41.2187 14.5889 40.9081C14.7859 40.5937 15.0491 40.3475 15.3787 40.1694C15.7082 39.9914 16.0719 39.8588 16.4696 39.7717C16.8711 39.6808 17.2745 39.6088 17.6798 39.5558C18.2101 39.4876 18.64 39.4365 18.9696 39.4024C19.3029 39.3645 19.5454 39.302 19.6969 39.2149C19.8522 39.1278 19.9298 38.9763 19.9298 38.7603V38.7149C19.9298 38.1543 19.7764 37.7187 19.4696 37.4081C19.1666 37.0975 18.7063 36.9422 18.0889 36.9422C17.4488 36.9422 16.9469 37.0823 16.5832 37.3626C16.2196 37.6429 15.9639 37.9422 15.8162 38.2603L14.5435 37.8058C14.7707 37.2755 15.0738 36.8626 15.4525 36.5672C15.8351 36.2679 16.2518 36.0596 16.7025 35.9422C17.1571 35.821 17.6041 35.7603 18.0435 35.7603C18.3238 35.7603 18.6457 35.7944 19.0094 35.8626C19.3768 35.927 19.731 36.0615 20.0719 36.266C20.4166 36.4706 20.7025 36.7793 20.9298 37.1922C21.1571 37.605 21.2707 38.1581 21.2707 38.8513V44.6013H19.9298V43.4194H19.8616C19.7707 43.6088 19.6192 43.8115 19.4071 44.0274C19.195 44.2433 18.9128 44.427 18.5605 44.5785C18.2082 44.73 17.7783 44.8058 17.2707 44.8058ZM17.4753 43.6013C18.0056 43.6013 18.4525 43.4971 18.8162 43.2888C19.1836 43.0804 19.4601 42.8115 19.6457 42.4819C19.8351 42.1524 19.9298 41.8058 19.9298 41.4422V40.2149C19.873 40.2831 19.748 40.3456 19.5548 40.4024C19.3654 40.4554 19.1457 40.5028 18.8957 40.5444C18.6495 40.5823 18.409 40.6164 18.1741 40.6467C17.9431 40.6732 17.7556 40.696 17.6116 40.7149C17.2632 40.7603 16.9374 40.8342 16.6344 40.9365C16.3351 41.035 16.0927 41.1846 15.9071 41.3853C15.7253 41.5823 15.6344 41.8513 15.6344 42.1922C15.6344 42.6581 15.8067 43.0103 16.1514 43.249C16.4999 43.4838 16.9412 43.6013 17.4753 43.6013ZM26.6336 35.874V37.0103H22.1109V35.874H26.6336ZM23.4291 33.7831H24.77V42.1013C24.77 42.48 24.8249 42.7641 24.9348 42.9535C25.0484 43.1391 25.1923 43.2641 25.3666 43.3285C25.5446 43.3891 25.7321 43.4194 25.9291 43.4194C26.0768 43.4194 26.198 43.4119 26.2927 43.3967C26.3874 43.3778 26.4632 43.3626 26.52 43.3513L26.7927 44.5558C26.7018 44.5899 26.5749 44.624 26.412 44.6581C26.2492 44.696 26.0427 44.7149 25.7927 44.7149C25.4139 44.7149 25.0427 44.6335 24.6791 44.4706C24.3192 44.3077 24.02 44.0596 23.7814 43.7263C23.5465 43.3929 23.4291 42.9725 23.4291 42.4649V33.7831ZM33.2707 41.0331V35.874H34.6116V44.6013H33.2707V43.124H33.1798C32.9752 43.5672 32.657 43.9441 32.2252 44.2547C31.7934 44.5615 31.2479 44.7149 30.5889 44.7149C30.0434 44.7149 29.5586 44.5956 29.1343 44.3569C28.7101 44.1145 28.3767 43.7509 28.1343 43.266C27.8919 42.7774 27.7707 42.1619 27.7707 41.4194V35.874H29.1116V41.3285C29.1116 41.9649 29.2896 42.4725 29.6457 42.8513C30.0055 43.23 30.4639 43.4194 31.0207 43.4194C31.354 43.4194 31.693 43.3342 32.0377 43.1638C32.3862 42.9933 32.6779 42.7319 32.9127 42.3797C33.1514 42.0274 33.2707 41.5785 33.2707 41.0331ZM36.1875 44.6013V35.874H37.483V37.1922H37.5739C37.733 36.7603 38.0209 36.41 38.4375 36.141C38.8542 35.8721 39.3239 35.7376 39.8466 35.7376C39.9451 35.7376 40.0682 35.7395 40.216 35.7433C40.3637 35.7471 40.4754 35.7528 40.5512 35.7603V37.124C40.5057 37.1126 40.4016 37.0956 40.2387 37.0728C40.0796 37.0463 39.911 37.0331 39.733 37.0331C39.3088 37.0331 38.93 37.1221 38.5966 37.3001C38.2671 37.4744 38.0057 37.7168 37.8125 38.0274C37.6232 38.3342 37.5285 38.6846 37.5285 39.0785V44.6013H36.1875ZM44.6541 44.7831C43.8132 44.7831 43.0879 44.5975 42.478 44.2263C41.8719 43.8513 41.4041 43.3285 41.0746 42.6581C40.7488 41.9838 40.586 41.1997 40.586 40.3058C40.586 39.4119 40.7488 38.624 41.0746 37.9422C41.4041 37.2566 41.8625 36.7225 42.4496 36.3399C43.0405 35.9535 43.7299 35.7603 44.5178 35.7603C44.9723 35.7603 45.4212 35.8361 45.8644 35.9876C46.3075 36.1391 46.711 36.3853 47.0746 36.7263C47.4382 37.0634 47.728 37.5103 47.9439 38.0672C48.1598 38.624 48.2678 39.3096 48.2678 40.124V40.6922H41.5405V39.5331H46.9041C46.9041 39.0407 46.8057 38.6013 46.6087 38.2149C46.4155 37.8285 46.139 37.5236 45.7791 37.3001C45.4231 37.0766 45.0026 36.9649 44.5178 36.9649C43.9837 36.9649 43.5216 37.0975 43.1314 37.3626C42.745 37.624 42.4477 37.9649 42.2394 38.3853C42.031 38.8058 41.9269 39.2566 41.9269 39.7376V40.5103C41.9269 41.1694 42.0405 41.7282 42.2678 42.1865C42.4988 42.641 42.8189 42.9876 43.228 43.2263C43.6371 43.4611 44.1125 43.5785 44.6541 43.5785C45.0064 43.5785 45.3246 43.5293 45.6087 43.4308C45.8966 43.3285 46.1447 43.177 46.353 42.9763C46.5613 42.7717 46.7223 42.5179 46.836 42.2149L48.1314 42.5785C47.995 43.0179 47.7659 43.4043 47.4439 43.7376C47.1219 44.0672 46.7242 44.3247 46.2507 44.5103C45.7772 44.6922 45.245 44.7831 44.6541 44.7831ZM55.6094 37.8285L54.4048 38.1694C54.3291 37.9687 54.2173 37.7736 54.0696 37.5842C53.9257 37.391 53.7287 37.2319 53.4787 37.1069C53.2287 36.9819 52.9086 36.9194 52.5185 36.9194C51.9844 36.9194 51.5393 37.0425 51.1832 37.2888C50.831 37.5312 50.6548 37.8399 50.6548 38.2149C50.6548 38.5482 50.776 38.8115 51.0185 39.0047C51.2609 39.1978 51.6397 39.3588 52.1548 39.4876L53.4503 39.8058C54.2306 39.9952 54.812 40.285 55.1946 40.6751C55.5772 41.0615 55.7685 41.5596 55.7685 42.1694C55.7685 42.6694 55.6245 43.1164 55.3366 43.5103C55.0525 43.9043 54.6548 44.2149 54.1435 44.4422C53.6321 44.6694 53.0374 44.7831 52.3594 44.7831C51.4692 44.7831 50.7325 44.5899 50.1491 44.2035C49.5658 43.8172 49.1965 43.2528 49.0412 42.5103L50.3139 42.1922C50.4351 42.6619 50.6643 43.0141 51.0014 43.249C51.3423 43.4838 51.7874 43.6013 52.3366 43.6013C52.9616 43.6013 53.4579 43.4687 53.8253 43.2035C54.1965 42.9346 54.3821 42.6126 54.3821 42.2376C54.3821 41.9346 54.276 41.6808 54.0639 41.4763C53.8518 41.2679 53.526 41.1126 53.0866 41.0103L51.6321 40.6694C50.8329 40.48 50.2457 40.1865 49.8707 39.7888C49.4995 39.3872 49.3139 38.8853 49.3139 38.2831C49.3139 37.7907 49.4522 37.355 49.7287 36.9763C50.009 36.5975 50.3897 36.3001 50.8707 36.0842C51.3556 35.8683 51.9048 35.7603 52.5185 35.7603C53.3821 35.7603 54.0601 35.9497 54.5525 36.3285C55.0488 36.7073 55.401 37.2073 55.6094 37.8285ZM64.3224 35.874V37.0103H59.7997V35.874H64.3224ZM61.1178 33.7831H62.4587V42.1013C62.4587 42.48 62.5137 42.7641 62.6235 42.9535C62.7372 43.1391 62.8811 43.2641 63.0553 43.3285C63.2334 43.3891 63.4209 43.4194 63.6178 43.4194C63.7656 43.4194 63.8868 43.4119 63.9815 43.3967C64.0762 43.3778 64.1519 43.3626 64.2087 43.3513L64.4815 44.5558C64.3906 44.5899 64.2637 44.624 64.1008 44.6581C63.9379 44.696 63.7315 44.7149 63.4815 44.7149C63.1027 44.7149 62.7315 44.6335 62.3678 44.4706C62.008 44.3077 61.7087 44.0596 61.4701 43.7263C61.2353 43.3929 61.1178 42.9725 61.1178 42.4649V33.7831ZM68.9111 44.7831C68.1232 44.7831 67.432 44.5956 66.8373 44.2206C66.2464 43.8456 65.7842 43.321 65.4509 42.6467C65.1214 41.9725 64.9566 41.1846 64.9566 40.2831C64.9566 39.374 65.1214 38.5804 65.4509 37.9024C65.7842 37.2244 66.2464 36.6978 66.8373 36.3228C67.432 35.9478 68.1232 35.7603 68.9111 35.7603C69.699 35.7603 70.3884 35.9478 70.9793 36.3228C71.574 36.6978 72.0361 37.2244 72.3657 37.9024C72.699 38.5804 72.8657 39.374 72.8657 40.2831C72.8657 41.1846 72.699 41.9725 72.3657 42.6467C72.0361 43.321 71.574 43.8456 70.9793 44.2206C70.3884 44.5956 69.699 44.7831 68.9111 44.7831ZM68.9111 43.5785C69.5096 43.5785 70.002 43.4251 70.3884 43.1183C70.7748 42.8115 71.0607 42.4081 71.2464 41.9081C71.432 41.4081 71.5248 40.8664 71.5248 40.2831C71.5248 39.6997 71.432 39.1562 71.2464 38.6524C71.0607 38.1486 70.7748 37.7414 70.3884 37.4308C70.002 37.1202 69.5096 36.9649 68.9111 36.9649C68.3126 36.9649 67.8202 37.1202 67.4339 37.4308C67.0475 37.7414 66.7615 38.1486 66.5759 38.6524C66.3903 39.1562 66.2975 39.6997 66.2975 40.2831C66.2975 40.8664 66.3903 41.4081 66.5759 41.9081C66.7615 42.4081 67.0475 42.8115 67.4339 43.1183C67.8202 43.4251 68.3126 43.5785 68.9111 43.5785ZM79.6298 44.6013L76.9707 35.874H78.3798L80.2662 42.5558H80.3571L82.2207 35.874H83.6526L85.4935 42.5331H85.5844L87.4707 35.874H88.8798L86.2207 44.6013H84.9026L82.9935 37.8967H82.8571L80.948 44.6013H79.6298ZM93.0211 44.7831C92.2332 44.7831 91.542 44.5956 90.9473 44.2206C90.3564 43.8456 89.8942 43.321 89.5609 42.6467C89.2314 41.9725 89.0666 41.1846 89.0666 40.2831C89.0666 39.374 89.2314 38.5804 89.5609 37.9024C89.8942 37.2244 90.3564 36.6978 90.9473 36.3228C91.542 35.9478 92.2332 35.7603 93.0211 35.7603C93.809 35.7603 94.4984 35.9478 95.0893 36.3228C95.684 36.6978 96.1461 37.2244 96.4757 37.9024C96.809 38.5804 96.9757 39.374 96.9757 40.2831C96.9757 41.1846 96.809 41.9725 96.4757 42.6467C96.1461 43.321 95.684 43.8456 95.0893 44.2206C94.4984 44.5956 93.809 44.7831 93.0211 44.7831ZM93.0211 43.5785C93.6196 43.5785 94.112 43.4251 94.4984 43.1183C94.8848 42.8115 95.1707 42.4081 95.3564 41.9081C95.542 41.4081 95.6348 40.8664 95.6348 40.2831C95.6348 39.6997 95.542 39.1562 95.3564 38.6524C95.1707 38.1486 94.8848 37.7414 94.4984 37.4308C94.112 37.1202 93.6196 36.9649 93.0211 36.9649C92.4226 36.9649 91.9302 37.1202 91.5439 37.4308C91.1575 37.7414 90.8715 38.1486 90.6859 38.6524C90.5003 39.1562 90.4075 39.6997 90.4075 40.2831C90.4075 40.8664 90.5003 41.4081 90.6859 41.9081C90.8715 42.4081 91.1575 42.8115 91.5439 43.1183C91.9302 43.4251 92.4226 43.5785 93.0211 43.5785ZM98.1425 44.6013V35.874H99.438V37.1922H99.5289C99.688 36.7603 99.9759 36.41 100.393 36.141C100.809 35.8721 101.279 35.7376 101.802 35.7376C101.9 35.7376 102.023 35.7395 102.171 35.7433C102.319 35.7471 102.43 35.7528 102.506 35.7603V37.124C102.461 37.1126 102.357 37.0956 102.194 37.0728C102.035 37.0463 101.866 37.0331 101.688 37.0331C101.264 37.0331 100.885 37.1221 100.552 37.3001C100.222 37.4744 99.9607 37.7168 99.7675 38.0274C99.5782 38.3342 99.4835 38.6846 99.4835 39.0785V44.6013H98.1425ZM104.466 41.4194L104.443 39.7603H104.716L108.534 35.874H110.193L106.125 39.9876H106.011L104.466 41.4194ZM103.216 44.6013V32.9649H104.557V44.6013H103.216ZM108.761 44.6013L105.352 40.2831L106.307 39.3513L110.466 44.6013H108.761ZM114.659 47.874V35.874H115.954V37.2603H116.113C116.212 37.1088 116.348 36.9157 116.522 36.6808C116.7 36.4422 116.954 36.23 117.284 36.0444C117.617 35.855 118.068 35.7603 118.636 35.7603C119.371 35.7603 120.019 35.9441 120.579 36.3115C121.14 36.6789 121.577 37.1997 121.892 37.874C122.206 38.5482 122.363 39.3437 122.363 40.2603C122.363 41.1846 122.206 41.9857 121.892 42.6638C121.577 43.338 121.142 43.8607 120.585 44.2319C120.028 44.5994 119.386 44.7831 118.659 44.7831C118.098 44.7831 117.649 44.6903 117.312 44.5047C116.975 44.3153 116.716 44.1013 116.534 43.8626C116.352 43.6202 116.212 43.4194 116.113 43.2603H116V47.874H114.659ZM115.977 40.2376C115.977 40.8967 116.074 41.4782 116.267 41.9819C116.46 42.4819 116.742 42.874 117.113 43.1581C117.485 43.4384 117.939 43.5785 118.477 43.5785C119.038 43.5785 119.505 43.4308 119.88 43.1353C120.259 42.8361 120.543 42.4346 120.733 41.9308C120.926 41.4232 121.022 40.8588 121.022 40.2376C121.022 39.624 120.928 39.071 120.738 38.5785C120.553 38.0823 120.271 37.6903 119.892 37.4024C119.517 37.1107 119.045 36.9649 118.477 36.9649C117.932 36.9649 117.473 37.1032 117.102 37.3797C116.731 37.6524 116.45 38.035 116.261 38.5274C116.072 39.016 115.977 39.5861 115.977 40.2376ZM123.529 44.6013V35.874H124.824V37.1922H124.915C125.074 36.7603 125.362 36.41 125.779 36.141C126.195 35.8721 126.665 35.7376 127.188 35.7376C127.286 35.7376 127.409 35.7395 127.557 35.7433C127.705 35.7471 127.817 35.7528 127.892 35.7603V37.124C127.847 37.1126 127.743 37.0956 127.58 37.0728C127.421 37.0463 127.252 37.0331 127.074 37.0331C126.65 37.0331 126.271 37.1221 125.938 37.3001C125.608 37.4744 125.347 37.7168 125.154 38.0274C124.964 38.3342 124.87 38.6846 124.87 39.0785V44.6013H123.529ZM131.882 44.7831C131.094 44.7831 130.403 44.5956 129.808 44.2206C129.217 43.8456 128.755 43.321 128.422 42.6467C128.092 41.9725 127.927 41.1846 127.927 40.2831C127.927 39.374 128.092 38.5804 128.422 37.9024C128.755 37.2244 129.217 36.6978 129.808 36.3228C130.403 35.9478 131.094 35.7603 131.882 35.7603C132.67 35.7603 133.359 35.9478 133.95 36.3228C134.545 36.6978 135.007 37.2244 135.336 37.9024C135.67 38.5804 135.836 39.374 135.836 40.2831C135.836 41.1846 135.67 41.9725 135.336 42.6467C135.007 43.321 134.545 43.8456 133.95 44.2206C133.359 44.5956 132.67 44.7831 131.882 44.7831ZM131.882 43.5785C132.48 43.5785 132.973 43.4251 133.359 43.1183C133.745 42.8115 134.031 42.4081 134.217 41.9081C134.403 41.4081 134.495 40.8664 134.495 40.2831C134.495 39.6997 134.403 39.1562 134.217 38.6524C134.031 38.1486 133.745 37.7414 133.359 37.4308C132.973 37.1202 132.48 36.9649 131.882 36.9649C131.283 36.9649 130.791 37.1202 130.404 37.4308C130.018 37.7414 129.732 38.1486 129.547 38.6524C129.361 39.1562 129.268 39.6997 129.268 40.2831C129.268 40.8664 129.361 41.4081 129.547 41.9081C129.732 42.4081 130.018 42.8115 130.404 43.1183C130.791 43.4251 131.283 43.5785 131.882 43.5785ZM137.003 47.874V35.874H138.299V37.2603H138.458C138.556 37.1088 138.693 36.9157 138.867 36.6808C139.045 36.4422 139.299 36.23 139.628 36.0444C139.962 35.855 140.412 35.7603 140.98 35.7603C141.715 35.7603 142.363 35.9441 142.924 36.3115C143.484 36.6789 143.922 37.1997 144.236 37.874C144.551 38.5482 144.708 39.3437 144.708 40.2603C144.708 41.1846 144.551 41.9857 144.236 42.6638C143.922 43.338 143.486 43.8607 142.929 44.2319C142.372 44.5994 141.73 44.7831 141.003 44.7831C140.443 44.7831 139.994 44.6903 139.657 44.5047C139.319 44.3153 139.06 44.1013 138.878 43.8626C138.696 43.6202 138.556 43.4194 138.458 43.2603H138.344V47.874H137.003ZM138.321 40.2376C138.321 40.8967 138.418 41.4782 138.611 41.9819C138.804 42.4819 139.087 42.874 139.458 43.1581C139.829 43.4384 140.283 43.5785 140.821 43.5785C141.382 43.5785 141.85 43.4308 142.225 43.1353C142.604 42.8361 142.888 42.4346 143.077 41.9308C143.27 41.4232 143.367 40.8588 143.367 40.2376C143.367 39.624 143.272 39.071 143.083 38.5785C142.897 38.0823 142.615 37.6903 142.236 37.4024C141.861 37.1107 141.39 36.9649 140.821 36.9649C140.276 36.9649 139.818 37.1032 139.446 37.3797C139.075 37.6524 138.795 38.035 138.605 38.5274C138.416 39.016 138.321 39.5861 138.321 40.2376ZM149.532 44.7831C148.691 44.7831 147.966 44.5975 147.356 44.2263C146.75 43.8513 146.282 43.3285 145.953 42.6581C145.627 41.9838 145.464 41.1997 145.464 40.3058C145.464 39.4119 145.627 38.624 145.953 37.9422C146.282 37.2566 146.741 36.7225 147.328 36.3399C147.919 35.9535 148.608 35.7603 149.396 35.7603C149.85 35.7603 150.299 35.8361 150.742 35.9876C151.186 36.1391 151.589 36.3853 151.953 36.7263C152.316 37.0634 152.606 37.5103 152.822 38.0672C153.038 38.624 153.146 39.3096 153.146 40.124V40.6922H146.419V39.5331H151.782C151.782 39.0407 151.684 38.6013 151.487 38.2149C151.294 37.8285 151.017 37.5236 150.657 37.3001C150.301 37.0766 149.881 36.9649 149.396 36.9649C148.862 36.9649 148.4 37.0975 148.01 37.3626C147.623 37.624 147.326 37.9649 147.117 38.3853C146.909 38.8058 146.805 39.2566 146.805 39.7376V40.5103C146.805 41.1694 146.919 41.7282 147.146 42.1865C147.377 42.641 147.697 42.9876 148.106 43.2263C148.515 43.4611 148.991 43.5785 149.532 43.5785C149.885 43.5785 150.203 43.5293 150.487 43.4308C150.775 43.3285 151.023 43.177 151.231 42.9763C151.439 42.7717 151.6 42.5179 151.714 42.2149L153.01 42.5785C152.873 43.0179 152.644 43.4043 152.322 43.7376C152 44.0672 151.602 44.3247 151.129 44.5103C150.655 44.6922 150.123 44.7831 149.532 44.7831ZM154.306 44.6013V35.874H155.601V37.1922H155.692C155.851 36.7603 156.139 36.41 156.556 36.141C156.972 35.8721 157.442 35.7376 157.965 35.7376C158.063 35.7376 158.186 35.7395 158.334 35.7433C158.482 35.7471 158.594 35.7528 158.669 35.7603V37.124C158.624 37.1126 158.52 37.0956 158.357 37.0728C158.198 37.0463 158.029 37.0331 157.851 37.0331C157.427 37.0331 157.048 37.1221 156.715 37.3001C156.385 37.4744 156.124 37.7168 155.931 38.0274C155.741 38.3342 155.647 38.6846 155.647 39.0785V44.6013H154.306ZM160.72 32.9649V44.6013H159.379V32.9649H160.72ZM163.159 47.874C162.932 47.874 162.729 47.855 162.551 47.8172C162.373 47.7831 162.25 47.749 162.182 47.7149L162.523 46.5331C162.849 46.6164 163.137 46.6467 163.387 46.624C163.637 46.6013 163.858 46.4895 164.051 46.2888C164.248 46.0918 164.428 45.7717 164.591 45.3285L164.841 44.6467L161.614 35.874H163.068L165.477 42.8285H165.568L167.977 35.874H169.432L165.727 45.874C165.561 46.3247 165.354 46.6978 165.108 46.9933C164.862 47.2925 164.576 47.5141 164.25 47.6581C163.928 47.802 163.565 47.874 163.159 47.874ZM170.752 44.6922C170.472 44.6922 170.231 44.5918 170.031 44.391C169.83 44.1903 169.73 43.9497 169.73 43.6694C169.73 43.3891 169.83 43.1486 170.031 42.9478C170.231 42.7471 170.472 42.6467 170.752 42.6467C171.033 42.6467 171.273 42.7471 171.474 42.9478C171.675 43.1486 171.775 43.3891 171.775 43.6694C171.775 43.855 171.728 44.0255 171.633 44.1808C171.542 44.3361 171.419 44.4611 171.264 44.5558C171.112 44.6467 170.942 44.6922 170.752 44.6922Z" fill="white"/>
</svg>
