<svg width="33" height="34" viewBox="0 0 33 34" fill="none" xmlns="http://www.w3.org/2000/svg">
<g clip-path="url(#clip0_10_175)">
<path d="M49.8459 0.0141296H0.345856V33.0135H49.8459V0.0141296Z" fill="white"/>
<path d="M49.8459 0.0141296V16.5138H25.0959L0.345856 0.0141296H49.8459Z" fill="#0052B4"/>
<path d="M49.8459 16.5139V33.0135H0.345856L25.0959 16.5139H49.8459Z" fill="#D80027"/>
<path d="M15.9991 16.5139L13.3609 15.273L14.7658 12.7179L11.901 13.2659L11.538 10.372L9.54251 12.5004L7.54714 10.372L7.18411 13.2659L4.31939 12.7178L5.72424 15.2729L3.08604 16.5139L5.72424 17.7547L4.31939 20.3098L7.1843 19.7618L7.54714 22.6557L9.54251 20.5273L11.538 22.6557L11.901 19.7618L14.7657 20.3099L13.3608 17.7549L15.9991 16.5139Z" fill="#FFDA44"/>
<path d="M2.4524 3.13403L3.33035 4.36148L4.76885 3.90573L3.87282 5.12003L4.75077 6.34728L3.31904 5.87046L2.42301 7.08466L2.43432 5.57568L1.00259 5.09866L2.44119 4.64311L2.4524 3.13403Z" fill="#FFDA44"/>
<path d="M2.4524 25.943L3.33035 27.1705L4.76885 26.7147L3.87282 27.929L4.75077 29.1564L3.31904 28.6794L2.42301 29.8936L2.43432 28.3847L1.00259 27.9077L2.44119 27.4521L2.4524 25.943Z" fill="#FFDA44"/>
<path d="M20.6868 14.5386L19.8088 15.7659L18.3703 15.3103L19.2664 16.5245L18.3884 17.7519L19.8202 17.275L20.7162 18.4891L20.7049 16.9802L22.1366 16.5032L20.698 16.0476L20.6868 14.5386Z" fill="#FFDA44"/>
</g>
<defs>
<clipPath id="clip0_10_175">
<rect width="33" height="33" fill="white" transform="translate(0.345856 0.0137939)"/>
</clipPath>
</defs>
</svg>
