<svg width="70" height="70" viewBox="0 0 70 70" fill="none" xmlns="http://www.w3.org/2000/svg">
<path d="M35 18.9494C36.933 18.9494 38.7867 19.7173 40.1536 21.0841C41.5204 22.4509 42.2882 24.3047 42.2882 26.2376C42.2882 27.1947 42.0997 28.1425 41.7334 29.0267C41.3672 29.9109 40.8303 30.7144 40.1536 31.3912C39.4768 32.0679 38.6733 32.6048 37.7891 32.9711C36.9048 33.3373 35.9571 33.5258 35 33.5258C33.067 33.5258 31.2132 32.758 29.8464 31.3912C28.4796 30.0244 27.7118 28.1706 27.7118 26.2376C27.7118 24.3047 28.4796 22.4509 29.8464 21.0841C31.2132 19.7173 33.067 18.9494 35 18.9494ZM35 5.83058C40.4123 5.83058 45.6029 7.9806 49.4299 11.8077C53.257 15.6347 55.407 20.8253 55.407 26.2376C55.407 41.5429 35 64.1364 35 64.1364C35 64.1364 14.593 41.5429 14.593 26.2376C14.593 20.8253 16.743 15.6347 20.57 11.8077C24.3971 7.9806 29.5877 5.83058 35 5.83058M35 11.6612C31.1341 11.6612 27.4265 13.1969 24.6929 15.9305C21.9593 18.6641 20.4235 22.3717 20.4235 26.2376C20.4235 29.1529 20.4235 34.9835 35 54.5451C49.5764 34.9835 49.5764 29.1529 49.5764 26.2376C49.5764 22.3717 48.0407 18.6641 45.3071 15.9305C42.5735 13.1969 38.8659 11.6612 35 11.6612V11.6612Z" fill="white"/>
</svg>
