<svg width="383" height="12" viewBox="0 0 383 12" fill="none" xmlns="http://www.w3.org/2000/svg">
<line x1="29.6162" y1="6.03696" x2="383" y2="6.03699" stroke="white" stroke-opacity="0.5" stroke-width="1.01996"/>
<path d="M25.8502 0.878204L29.6162 4.35061V7.64935L25.8502 11.1218H0.0533447V0.878204H25.8502Z" fill="white" fill-opacity="0.5"/>
<path d="M6.39176 8.54695V3.75244H8.28335C8.64699 3.75244 8.9568 3.82189 9.21275 3.9608C9.46871 4.09814 9.6638 4.28933 9.79802 4.53436C9.9338 4.77783 10.0017 5.05876 10.0017 5.37714C10.0017 5.69553 9.93302 5.97646 9.79568 6.21993C9.65834 6.4634 9.45935 6.65303 9.19871 6.78881C8.93963 6.92459 8.62592 6.99248 8.2576 6.99248H7.05195V6.18013H8.09372C8.28881 6.18013 8.44956 6.14657 8.57598 6.07946C8.70396 6.01079 8.79916 5.91637 8.86159 5.79619C8.92558 5.67446 8.95758 5.53478 8.95758 5.37714C8.95758 5.21795 8.92558 5.07905 8.86159 4.96043C8.79916 4.84026 8.70396 4.7474 8.57598 4.68185C8.448 4.61473 8.28569 4.58118 8.08904 4.58118H7.40545V8.54695H6.39176ZM10.2975 8.54695V3.75244H11.3112V7.71119H13.3667V8.54695H10.2975ZM14.6241 8.54695H13.5379L15.193 3.75244H16.4993L18.1521 8.54695H17.0658L15.8649 4.84806H15.8274L14.6241 8.54695ZM14.5562 6.66239H17.122V7.45367H14.5562V6.66239ZM22.3768 3.75244V8.54695H21.5013L19.4154 5.52931H19.3803V8.54695H18.3666V3.75244H19.2562L21.3257 6.76774H21.3678V3.75244H22.3768Z" fill="white"/>
</svg>
