<svg width="142" height="42" viewBox="0 0 142 42" fill="none" xmlns="http://www.w3.org/2000/svg">
<path d="M1.12605 10.54V0.35816H2.35901V9.44623H7.09196V10.54H1.12605ZM11.9442 10.6991C11.2548 10.6991 10.65 10.535 10.1296 10.2069C9.61256 9.87876 9.2082 9.41971 8.91653 8.82975C8.62818 8.23979 8.48401 7.55039 8.48401 6.76157C8.48401 5.96611 8.62818 5.27175 8.91653 4.67847C9.2082 4.0852 9.61256 3.62449 10.1296 3.29637C10.65 2.96825 11.2548 2.80418 11.9442 2.80418C12.6336 2.80418 13.2368 2.96825 13.7539 3.29637C14.2743 3.62449 14.6786 4.0852 14.967 4.67847C15.2586 5.27175 15.4045 5.96611 15.4045 6.76157C15.4045 7.55039 15.2586 8.23979 14.967 8.82975C14.6786 9.41971 14.2743 9.87876 13.7539 10.2069C13.2368 10.535 12.6336 10.6991 11.9442 10.6991ZM11.9442 9.64509C12.4679 9.64509 12.8988 9.51086 13.2368 9.24239C13.5749 8.97393 13.8252 8.62094 13.9876 8.18344C14.15 7.74594 14.2312 7.27199 14.2312 6.76157C14.2312 6.25115 14.15 5.77554 13.9876 5.33472C13.8252 4.89391 13.5749 4.53761 13.2368 4.26583C12.8988 3.99405 12.4679 3.85816 11.9442 3.85816C11.4206 3.85816 10.9897 3.99405 10.6516 4.26583C10.3136 4.53761 10.0633 4.89391 9.90091 5.33472C9.7385 5.77554 9.6573 6.25115 9.6573 6.76157C9.6573 7.27199 9.7385 7.74594 9.90091 8.18344C10.0633 8.62094 10.3136 8.97393 10.6516 9.24239C10.9897 9.51086 11.4206 9.64509 11.9442 9.64509ZM17.1955 10.54V2.90361H18.329V4.05702H18.4085C18.5477 3.67918 18.7996 3.3726 19.1642 3.13728C19.5288 2.90196 19.9398 2.7843 20.3972 2.7843C20.4834 2.7843 20.5911 2.78595 20.7203 2.78927C20.8496 2.79258 20.9474 2.79755 21.0137 2.80418V3.99736C20.9739 3.98742 20.8827 3.97251 20.7402 3.95262C20.601 3.92942 20.4535 3.91782 20.2977 3.91782C19.9265 3.91782 19.5951 3.99571 19.3034 4.15148C19.0151 4.30395 18.7864 4.51607 18.6174 4.78785C18.4516 5.05631 18.3688 5.36289 18.3688 5.70759V10.54H17.1955ZM25.3737 10.6991C24.6379 10.6991 24.0032 10.5367 23.4696 10.2119C22.9393 9.88373 22.53 9.42634 22.2416 8.83969C21.9566 8.24973 21.8141 7.56365 21.8141 6.78146C21.8141 5.99926 21.9566 5.30986 22.2416 4.71327C22.53 4.11337 22.931 3.64604 23.4448 3.31128C23.9618 2.97322 24.565 2.80418 25.2544 2.80418C25.6522 2.80418 26.0449 2.87047 26.4327 3.00305C26.8205 3.13562 27.1735 3.35106 27.4916 3.64935C27.8098 3.94433 28.0634 4.33543 28.2523 4.82265C28.4412 5.30986 28.5357 5.90977 28.5357 6.62236V7.11952H22.6493V6.10532H27.3425C27.3425 5.67445 27.2563 5.28998 27.084 4.95191C26.9149 4.61384 26.673 4.34703 26.3581 4.15148C26.0466 3.95593 25.6787 3.85816 25.2544 3.85816C24.7871 3.85816 24.3827 3.97416 24.0414 4.20617C23.7033 4.43486 23.4431 4.73316 23.2608 5.10106C23.0785 5.46896 22.9874 5.86337 22.9874 6.2843V6.96043C22.9874 7.53714 23.0868 8.02601 23.2857 8.42705C23.4879 8.82478 23.7679 9.12805 24.1259 9.33685C24.4838 9.54235 24.8998 9.64509 25.3737 9.64509C25.682 9.64509 25.9604 9.602 26.209 9.51583C26.4609 9.42634 26.678 9.29377 26.8602 9.1181C27.0425 8.93913 27.1834 8.71706 27.2828 8.45191L28.4164 8.77009C28.297 9.15456 28.0965 9.49263 27.8148 9.7843C27.5331 10.0726 27.1851 10.298 26.7708 10.4604C26.3565 10.6195 25.8908 10.6991 25.3737 10.6991ZM30.3205 10.54V2.90361H31.454V4.0968H31.5534C31.7125 3.68913 31.9694 3.3726 32.324 3.14722C32.6787 2.91853 33.1046 2.80418 33.6017 2.80418C34.1055 2.80418 34.5248 2.91853 34.8595 3.14722C35.1976 3.3726 35.4611 3.68913 35.65 4.0968H35.7296C35.9251 3.70238 36.2184 3.38917 36.6095 3.15717C37.0006 2.92184 37.4696 2.80418 38.0165 2.80418C38.6993 2.80418 39.2577 3.01796 39.6919 3.44552C40.1261 3.86976 40.3432 4.53098 40.3432 5.42918V10.54H39.1699V5.42918C39.1699 4.86574 39.0158 4.46304 38.7076 4.22109C38.3993 3.97913 38.0364 3.85816 37.6188 3.85816C37.0818 3.85816 36.6659 4.02056 36.3709 4.34538C36.0759 4.66687 35.9284 5.07454 35.9284 5.56839V10.54H34.7352V5.30986C34.7352 4.87568 34.5944 4.52601 34.3127 4.26086C34.0309 3.99239 33.668 3.85816 33.2239 3.85816C32.919 3.85816 32.6339 3.93936 32.3688 4.10177C32.1069 4.26417 31.8948 4.48955 31.7324 4.7779C31.5733 5.06294 31.4938 5.39272 31.4938 5.76725V10.54H30.3205ZM46.4259 10.54V2.90361H47.5992V10.54H46.4259ZM47.0225 1.63089C46.7938 1.63089 46.5966 1.553 46.4309 1.39722C46.2685 1.24145 46.1873 1.05418 46.1873 0.835433C46.1873 0.616683 46.2685 0.429419 46.4309 0.273642C46.5966 0.117866 46.7938 0.039978 47.0225 0.039978C47.2512 0.039978 47.4468 0.117866 47.6092 0.273642C47.7749 0.429419 47.8578 0.616683 47.8578 0.835433C47.8578 1.05418 47.7749 1.24145 47.6092 1.39722C47.4468 1.553 47.2512 1.63089 47.0225 1.63089ZM49.7482 13.4036V2.90361H50.8817V4.11668H51.0209C51.1071 3.98411 51.2264 3.81507 51.3789 3.60958C51.5347 3.40077 51.7567 3.21517 52.0451 3.05276C52.3368 2.88704 52.7312 2.80418 53.2283 2.80418C53.8713 2.80418 54.4381 2.96493 54.9286 3.28643C55.4191 3.60792 55.802 4.06365 56.077 4.65361C56.3521 5.24358 56.4897 5.9396 56.4897 6.74168C56.4897 7.55039 56.3521 8.25139 56.077 8.84467C55.802 9.43463 55.4208 9.89201 54.9336 10.2168C54.4464 10.5383 53.8846 10.6991 53.2482 10.6991C52.7577 10.6991 52.3649 10.6179 52.0699 10.4555C51.775 10.2897 51.5479 10.1025 51.3888 9.89367C51.2297 9.68155 51.1071 9.50589 51.0209 9.36668H50.9215V13.4036H49.7482ZM50.9016 6.7218C50.9016 7.2985 50.9861 7.80726 51.1552 8.24807C51.3242 8.68557 51.5711 9.02861 51.8959 9.27719C52.2207 9.52246 52.6185 9.64509 53.0891 9.64509C53.5797 9.64509 53.989 9.51583 54.3171 9.25731C54.6485 8.99547 54.8971 8.64414 55.0628 8.20333C55.2319 7.7592 55.3164 7.26536 55.3164 6.7218C55.3164 6.18486 55.2335 5.70096 55.0678 5.27009C54.9054 4.83591 54.6585 4.49287 54.327 4.24097C53.9989 3.98576 53.5863 3.85816 53.0891 3.85816C52.6118 3.85816 52.2108 3.97913 51.886 4.22109C51.5612 4.45972 51.3159 4.79448 51.1502 5.22535C50.9845 5.6529 50.9016 6.15172 50.9016 6.7218ZM63.6886 4.61384L62.6346 4.91214C62.5683 4.73647 62.4705 4.56578 62.3413 4.40006C62.2153 4.23103 62.043 4.09182 61.8242 3.98245C61.6055 3.87307 61.3254 3.81839 60.984 3.81839C60.5167 3.81839 60.1272 3.9261 59.8157 4.14154C59.5074 4.35366 59.3533 4.62378 59.3533 4.95191C59.3533 5.24358 59.4594 5.47393 59.6715 5.64296C59.8836 5.81199 60.2151 5.95286 60.6658 6.06555L61.7993 6.34396C62.4821 6.50967 62.9909 6.76323 63.3256 7.10461C63.6604 7.44268 63.8278 7.87852 63.8278 8.41214C63.8278 8.84964 63.7018 9.24074 63.4499 9.58543C63.2013 9.93013 62.8533 10.2019 62.4059 10.4008C61.9584 10.5996 61.4381 10.6991 60.8448 10.6991C60.0659 10.6991 59.4213 10.53 58.9109 10.192C58.4004 9.8539 58.0773 9.36005 57.9414 8.71043L59.055 8.43202C59.1611 8.84301 59.3616 9.15125 59.6566 9.35674C59.9549 9.56223 60.3443 9.66498 60.8249 9.66498C61.3718 9.66498 61.806 9.54897 62.1275 9.31697C62.4523 9.08164 62.6147 8.79992 62.6147 8.4718C62.6147 8.20664 62.5219 7.98458 62.3363 7.8056C62.1507 7.62331 61.8656 7.48742 61.4812 7.39793L60.2084 7.09964C59.5091 6.93392 58.9954 6.67705 58.6672 6.32904C58.3424 5.97771 58.18 5.53856 58.18 5.01157C58.18 4.5807 58.301 4.19954 58.543 3.8681C58.7882 3.53666 59.1213 3.27648 59.5422 3.08756C59.9665 2.89864 60.4471 2.80418 60.984 2.80418C61.7397 2.80418 62.333 2.9699 62.7638 3.30134C63.198 3.63278 63.5063 4.07028 63.6886 4.61384ZM70.4064 7.41782V2.90361H71.5797V10.54H70.4064V9.24736H70.3269C70.1479 9.63515 69.8695 9.96493 69.4916 10.2367C69.1138 10.5052 68.6365 10.6394 68.0598 10.6394C67.5826 10.6394 67.1583 10.535 66.7871 10.3262C66.4159 10.1141 66.1242 9.7959 65.9121 9.37165C65.7 8.9441 65.5939 8.40551 65.5939 7.75589V2.90361H66.7672V7.67634C66.7672 8.23316 66.923 8.67729 67.2345 9.00873C67.5494 9.34017 67.9504 9.50589 68.4377 9.50589C68.7293 9.50589 69.026 9.43131 69.3276 9.28217C69.6325 9.13302 69.8877 8.90432 70.0932 8.59609C70.302 8.28785 70.4064 7.89509 70.4064 7.41782ZM73.7287 10.54V2.90361H74.8622V4.0968H74.9616C75.1207 3.68913 75.3776 3.3726 75.7322 3.14722C76.0869 2.91853 76.5128 2.80418 77.0099 2.80418C77.5137 2.80418 77.933 2.91853 78.2677 3.14722C78.6058 3.3726 78.8693 3.68913 79.0582 4.0968H79.1378C79.3333 3.70238 79.6266 3.38917 80.0177 3.15717C80.4088 2.92184 80.8778 2.80418 81.4247 2.80418C82.1075 2.80418 82.6659 3.01796 83.1001 3.44552C83.5343 3.86976 83.7514 4.53098 83.7514 5.42918V10.54H82.5781V5.42918C82.5781 4.86574 82.424 4.46304 82.1158 4.22109C81.8075 3.97913 81.4446 3.85816 81.027 3.85816C80.49 3.85816 80.0741 4.02056 79.7791 4.34538C79.4841 4.66687 79.3366 5.07454 79.3366 5.56839V10.54H78.1435V5.30986C78.1435 4.87568 78.0026 4.52601 77.7209 4.26086C77.4391 3.99239 77.0762 3.85816 76.6321 3.85816C76.3272 3.85816 76.0421 3.93936 75.777 4.10177C75.5151 4.26417 75.303 4.48955 75.1406 4.7779C74.9815 5.06294 74.902 5.39272 74.902 5.76725V10.54H73.7287ZM92.7177 10.6991C92.0813 10.6991 91.5195 10.5383 91.0323 10.2168C90.5451 9.89201 90.1639 9.43463 89.8888 8.84467C89.6137 8.25139 89.4762 7.55039 89.4762 6.74168C89.4762 5.9396 89.6137 5.24358 89.8888 4.65361C90.1639 4.06365 90.5467 3.60792 91.0373 3.28643C91.5278 2.96493 92.0946 2.80418 92.7376 2.80418C93.2347 2.80418 93.6275 2.88704 93.9158 3.05276C94.2075 3.21517 94.4296 3.40077 94.582 3.60958C94.7378 3.81507 94.8588 3.98411 94.9449 4.11668H95.0444V0.35816H96.2177V10.54H95.0841V9.36668H94.9449C94.8588 9.50589 94.7361 9.68155 94.577 9.89367C94.418 10.1025 94.1909 10.2897 93.8959 10.4555C93.601 10.6179 93.2082 10.6991 92.7177 10.6991ZM92.8768 9.64509C93.3474 9.64509 93.7451 9.52246 94.0699 9.27719C94.3948 9.02861 94.6417 8.68557 94.8107 8.24807C94.9797 7.80726 95.0643 7.2985 95.0643 6.7218C95.0643 6.15172 94.9814 5.6529 94.8157 5.22535C94.65 4.79448 94.4047 4.45972 94.0799 4.22109C93.7551 3.97913 93.354 3.85816 92.8768 3.85816C92.3796 3.85816 91.9653 3.98576 91.6339 4.24097C91.3057 4.49287 91.0588 4.83591 90.8931 5.27009C90.7307 5.70096 90.6495 6.18486 90.6495 6.7218C90.6495 7.26536 90.7323 7.7592 90.8981 8.20333C91.0671 8.64414 91.3157 8.99547 91.6438 9.25731C91.9752 9.51583 92.3862 9.64509 92.8768 9.64509ZM101.632 10.6991C100.942 10.6991 100.337 10.535 99.8171 10.2069C99.3001 9.87876 98.8957 9.41971 98.604 8.82975C98.3157 8.23979 98.1715 7.55039 98.1715 6.76157C98.1715 5.96611 98.3157 5.27175 98.604 4.67847C98.8957 4.0852 99.3001 3.62449 99.8171 3.29637C100.337 2.96825 100.942 2.80418 101.632 2.80418C102.321 2.80418 102.924 2.96825 103.441 3.29637C103.962 3.62449 104.366 4.0852 104.654 4.67847C104.946 5.27175 105.092 5.96611 105.092 6.76157C105.092 7.55039 104.946 8.23979 104.654 8.82975C104.366 9.41971 103.962 9.87876 103.441 10.2069C102.924 10.535 102.321 10.6991 101.632 10.6991ZM101.632 9.64509C102.155 9.64509 102.586 9.51086 102.924 9.24239C103.262 8.97393 103.513 8.62094 103.675 8.18344C103.837 7.74594 103.919 7.27199 103.919 6.76157C103.919 6.25115 103.837 5.77554 103.675 5.33472C103.513 4.89391 103.262 4.53761 102.924 4.26583C102.586 3.99405 102.155 3.85816 101.632 3.85816C101.108 3.85816 100.677 3.99405 100.339 4.26583C100.001 4.53761 99.7508 4.89391 99.5884 5.33472C99.426 5.77554 99.3448 6.25115 99.3448 6.76157C99.3448 7.27199 99.426 7.74594 99.5884 8.18344C99.7508 8.62094 100.001 8.97393 100.339 9.24239C100.677 9.51086 101.108 9.64509 101.632 9.64509ZM108.056 0.35816V10.54H106.883V0.35816H108.056ZM113.308 10.6991C112.618 10.6991 112.013 10.535 111.493 10.2069C110.976 9.87876 110.571 9.41971 110.28 8.82975C109.991 8.23979 109.847 7.55039 109.847 6.76157C109.847 5.96611 109.991 5.27175 110.28 4.67847C110.571 4.0852 110.976 3.62449 111.493 3.29637C112.013 2.96825 112.618 2.80418 113.308 2.80418C113.997 2.80418 114.6 2.96825 115.117 3.29637C115.638 3.62449 116.042 4.0852 116.33 4.67847C116.622 5.27175 116.768 5.96611 116.768 6.76157C116.768 7.55039 116.622 8.23979 116.33 8.82975C116.042 9.41971 115.638 9.87876 115.117 10.2069C114.6 10.535 113.997 10.6991 113.308 10.6991ZM113.308 9.64509C113.831 9.64509 114.262 9.51086 114.6 9.24239C114.938 8.97393 115.188 8.62094 115.351 8.18344C115.513 7.74594 115.594 7.27199 115.594 6.76157C115.594 6.25115 115.513 5.77554 115.351 5.33472C115.188 4.89391 114.938 4.53761 114.6 4.26583C114.262 3.99405 113.831 3.85816 113.308 3.85816C112.784 3.85816 112.353 3.99405 112.015 4.26583C111.677 4.53761 111.427 4.89391 111.264 5.33472C111.102 5.77554 111.021 6.25115 111.021 6.76157C111.021 7.27199 111.102 7.74594 111.264 8.18344C111.427 8.62094 111.677 8.97393 112.015 9.24239C112.353 9.51086 112.784 9.64509 113.308 9.64509ZM118.559 10.54V2.90361H119.692V4.05702H119.772C119.911 3.67918 120.163 3.3726 120.528 3.13728C120.892 2.90196 121.303 2.7843 121.76 2.7843C121.847 2.7843 121.954 2.78595 122.084 2.78927C122.213 2.79258 122.311 2.79755 122.377 2.80418V3.99736C122.337 3.98742 122.246 3.97251 122.104 3.95262C121.964 3.92942 121.817 3.91782 121.661 3.91782C121.29 3.91782 120.958 3.99571 120.667 4.15148C120.378 4.30395 120.15 4.51607 119.981 4.78785C119.815 5.05631 119.732 5.36289 119.732 5.70759V10.54H118.559ZM133.114 4.61384L132.06 4.91214C131.994 4.73647 131.896 4.56578 131.767 4.40006C131.641 4.23103 131.469 4.09182 131.25 3.98245C131.031 3.87307 130.751 3.81839 130.41 3.81839C129.942 3.81839 129.553 3.9261 129.241 4.14154C128.933 4.35366 128.779 4.62378 128.779 4.95191C128.779 5.24358 128.885 5.47393 129.097 5.64296C129.309 5.81199 129.641 5.95286 130.092 6.06555L131.225 6.34396C131.908 6.50967 132.417 6.76323 132.751 7.10461C133.086 7.44268 133.254 7.87852 133.254 8.41214C133.254 8.84964 133.128 9.24074 132.876 9.58543C132.627 9.93013 132.279 10.2019 131.832 10.4008C131.384 10.5996 130.864 10.6991 130.271 10.6991C129.492 10.6991 128.847 10.53 128.337 10.192C127.826 9.8539 127.503 9.36005 127.367 8.71043L128.481 8.43202C128.587 8.84301 128.787 9.15125 129.082 9.35674C129.381 9.56223 129.77 9.66498 130.251 9.66498C130.798 9.66498 131.232 9.54897 131.553 9.31697C131.878 9.08164 132.04 8.79992 132.04 8.4718C132.04 8.20664 131.948 7.98458 131.762 7.8056C131.576 7.62331 131.291 7.48742 130.907 7.39793L129.634 7.09964C128.935 6.93392 128.421 6.67705 128.093 6.32904C127.768 5.97771 127.606 5.53856 127.606 5.01157C127.606 4.5807 127.727 4.19954 127.969 3.8681C128.214 3.53666 128.547 3.27648 128.968 3.08756C129.392 2.89864 129.873 2.80418 130.41 2.80418C131.165 2.80418 131.759 2.9699 132.19 3.30134C132.624 3.63278 132.932 4.07028 133.114 4.61384ZM135.02 10.54V2.90361H136.193V10.54H135.02ZM135.616 1.63089C135.388 1.63089 135.19 1.553 135.025 1.39722C134.862 1.24145 134.781 1.05418 134.781 0.835433C134.781 0.616683 134.862 0.429419 135.025 0.273642C135.19 0.117866 135.388 0.039978 135.616 0.039978C135.845 0.039978 136.041 0.117866 136.203 0.273642C136.369 0.429419 136.452 0.616683 136.452 0.835433C136.452 1.05418 136.369 1.24145 136.203 1.39722C136.041 1.553 135.845 1.63089 135.616 1.63089ZM141.663 2.90361V3.89793H137.706V2.90361H141.663ZM138.859 1.07407H140.032V8.35248C140.032 8.68392 140.08 8.9325 140.176 9.09822C140.276 9.26062 140.402 9.37 140.554 9.42634C140.71 9.47937 140.874 9.50589 141.047 9.50589C141.176 9.50589 141.282 9.49926 141.365 9.486C141.448 9.46943 141.514 9.45617 141.564 9.44623L141.802 10.5002C141.723 10.53 141.612 10.5599 141.469 10.5897C141.327 10.6228 141.146 10.6394 140.927 10.6394C140.596 10.6394 140.271 10.5682 139.953 10.4256C139.638 10.2831 139.376 10.066 139.167 9.77435C138.962 9.48269 138.859 9.11479 138.859 8.67066V1.07407ZM3.21412 24.719C2.73022 24.719 2.29106 24.6278 1.89665 24.4455C1.50224 24.2599 1.18902 23.9931 0.957017 23.6451C0.72501 23.2938 0.609006 22.8695 0.609006 22.3724C0.609006 21.9349 0.69518 21.5802 0.867529 21.3084C1.03988 21.0333 1.27023 20.8179 1.55858 20.6621C1.84693 20.5064 2.16511 20.3904 2.51313 20.3141C2.86445 20.2346 3.21743 20.1716 3.57207 20.1252C4.03609 20.0655 4.41227 20.0208 4.70063 19.991C4.99229 19.9578 5.20441 19.9031 5.33699 19.8269C5.47288 19.7507 5.54082 19.6181 5.54082 19.4292V19.3894C5.54082 18.8989 5.40659 18.5177 5.13813 18.2459C4.87297 17.9742 4.47028 17.8383 3.93003 17.8383C3.3699 17.8383 2.93074 17.9609 2.61256 18.2062C2.29438 18.4514 2.07065 18.7133 1.94139 18.9917L0.827756 18.594C1.02662 18.1299 1.29177 17.7687 1.62321 17.5101C1.95796 17.2483 2.32255 17.066 2.71696 16.9633C3.11469 16.8572 3.50579 16.8042 3.89026 16.8042C4.13552 16.8042 4.41724 16.834 4.73543 16.8937C5.05692 16.95 5.36682 17.0677 5.66511 17.2467C5.96672 17.4256 6.21696 17.6958 6.41582 18.057C6.61469 18.4183 6.71412 18.9022 6.71412 19.5087V24.54H5.54082V23.5059H5.48117C5.40162 23.6716 5.26904 23.8489 5.08344 24.0378C4.89783 24.2268 4.65091 24.3875 4.34267 24.5201C4.03443 24.6527 3.65825 24.719 3.21412 24.719ZM3.3931 23.665C3.85711 23.665 4.24821 23.5738 4.56639 23.3915C4.88789 23.2092 5.12984 22.9739 5.29224 22.6856C5.45796 22.3972 5.54082 22.094 5.54082 21.7758V20.7019C5.49111 20.7616 5.38173 20.8163 5.2127 20.866C5.04698 20.9124 4.85474 20.9538 4.63599 20.9903C4.42056 21.0234 4.2101 21.0532 4.0046 21.0798C3.80242 21.103 3.63836 21.1228 3.51242 21.1394C3.20749 21.1792 2.92245 21.2438 2.6573 21.3333C2.39546 21.4195 2.18334 21.5504 2.02094 21.7261C1.86185 21.8984 1.7823 22.1337 1.7823 22.432C1.7823 22.8397 1.93311 23.1479 2.23472 23.3567C2.53964 23.5622 2.92577 23.665 3.3931 23.665ZM8.85563 24.54V16.9036H9.98916V18.0968H10.0886C10.2477 17.6891 10.5045 17.3726 10.8592 17.1472C11.2138 16.9185 11.6397 16.8042 12.1369 16.8042C12.6407 16.8042 13.0599 16.9185 13.3947 17.1472C13.7328 17.3726 13.9963 17.6891 14.1852 18.0968H14.2647C14.4603 17.7024 14.7536 17.3892 15.1447 17.1572C15.5358 16.9218 16.0048 16.8042 16.5517 16.8042C17.2344 16.8042 17.7929 17.018 18.2271 17.4455C18.6613 17.8698 18.8784 18.531 18.8784 19.4292V24.54H17.7051V19.4292C17.7051 18.8657 17.5509 18.463 17.2427 18.2211C16.9345 17.9791 16.5715 17.8582 16.1539 17.8582C15.617 17.8582 15.201 18.0206 14.9061 18.3454C14.6111 18.6669 14.4636 19.0745 14.4636 19.5684V24.54H13.2704V19.3099C13.2704 18.8757 13.1295 18.526 12.8478 18.2609C12.5661 17.9924 12.2032 17.8582 11.759 17.8582C11.4541 17.8582 11.1691 17.9394 10.9039 18.1018C10.6421 18.2642 10.43 18.4896 10.2676 18.7779C10.1085 19.0629 10.0289 19.3927 10.0289 19.7673V24.54H8.85563ZM24.2253 24.6991C23.4895 24.6991 22.8548 24.5367 22.3212 24.2119C21.7909 23.8837 21.3816 23.4263 21.0932 22.8397C20.8082 22.2497 20.6656 21.5637 20.6656 20.7815C20.6656 19.9993 20.8082 19.3099 21.0932 18.7133C21.3816 18.1134 21.7826 17.646 22.2963 17.3113C22.8134 16.9732 23.4166 16.8042 24.106 16.8042C24.5037 16.8042 24.8965 16.8705 25.2843 17.003C25.672 17.1356 26.025 17.3511 26.3432 17.6494C26.6614 17.9443 26.9149 18.3354 27.1039 18.8226C27.2928 19.3099 27.3872 19.9098 27.3872 20.6224V21.1195H21.5009V20.1053H26.1941C26.1941 19.6744 26.1079 19.29 25.9355 18.9519C25.7665 18.6138 25.5245 18.347 25.2097 18.1515C24.8981 17.9559 24.5302 17.8582 24.106 17.8582C23.6387 17.8582 23.2343 17.9742 22.8929 18.2062C22.5549 18.4349 22.2947 18.7332 22.1124 19.1011C21.9301 19.469 21.8389 19.8634 21.8389 20.2843V20.9604C21.8389 21.5371 21.9384 22.026 22.1372 22.4271C22.3394 22.8248 22.6195 23.128 22.9774 23.3369C23.3354 23.5423 23.7513 23.6451 24.2253 23.6451C24.5335 23.6451 24.812 23.602 25.0605 23.5158C25.3124 23.4263 25.5295 23.2938 25.7118 23.1181C25.8941 22.9391 26.035 22.7171 26.1344 22.4519L27.2679 22.7701C27.1486 23.1546 26.9481 23.4926 26.6664 23.7843C26.3846 24.0726 26.0366 24.298 25.6223 24.4604C25.208 24.6195 24.7424 24.6991 24.2253 24.6991ZM32.4931 16.9036V17.8979H28.5357V16.9036H32.4931ZM29.6891 15.0741H30.8624V22.3525C30.8624 22.6839 30.9104 22.9325 31.0066 23.0982C31.106 23.2606 31.2319 23.37 31.3844 23.4263C31.5402 23.4794 31.7042 23.5059 31.8766 23.5059C32.0058 23.5059 32.1119 23.4993 32.1948 23.486C32.2776 23.4694 32.3439 23.4562 32.3936 23.4462L32.6323 24.5002C32.5527 24.53 32.4417 24.5599 32.2992 24.5897C32.1567 24.6228 31.976 24.6394 31.7573 24.6394C31.4258 24.6394 31.101 24.5682 30.7828 24.4256C30.468 24.2831 30.2061 24.066 29.9973 23.7744C29.7918 23.4827 29.6891 23.1148 29.6891 22.6707V15.0741ZM36.008 23.1479L35.9284 23.6849C35.8721 24.0627 35.7859 24.4671 35.6699 24.8979C35.5572 25.3288 35.4396 25.7348 35.3169 26.116C35.1943 26.4971 35.0932 26.8004 35.0137 27.0258H34.1188C34.1619 26.8137 34.2182 26.5336 34.2878 26.1856C34.3574 25.8376 34.427 25.4481 34.4966 25.0173C34.5695 24.5897 34.6292 24.1522 34.6756 23.7048L34.7352 23.1479H36.008ZM45.2216 24.6991C44.5057 24.6991 43.8892 24.53 43.3721 24.192C42.8551 23.8539 42.4574 23.3882 42.179 22.7949C41.9006 22.2017 41.7613 21.5239 41.7613 20.7616C41.7613 19.986 41.9039 19.3016 42.1889 18.7083C42.4773 18.1117 42.8783 17.646 43.392 17.3113C43.9091 16.9732 44.5123 16.8042 45.2017 16.8042C45.7386 16.8042 46.2225 16.9036 46.6534 17.1025C47.0843 17.3013 47.4372 17.5798 47.7123 17.9377C47.9874 18.2957 48.1581 18.7133 48.2244 19.1905H47.0511C46.9616 18.8425 46.7628 18.5343 46.4545 18.2658C46.1496 17.994 45.7386 17.8582 45.2216 17.8582C44.7642 17.8582 44.3631 17.9775 44.0185 18.2161C43.6771 18.4514 43.4103 18.7845 43.218 19.2154C43.0291 19.643 42.9346 20.1451 42.9346 20.7218C42.9346 21.3118 43.0274 21.8255 43.2131 22.263C43.402 22.7005 43.6671 23.0402 44.0085 23.2822C44.3532 23.5241 44.7576 23.6451 45.2216 23.6451C45.5265 23.6451 45.8033 23.5921 46.0518 23.486C46.3004 23.3799 46.5109 23.2275 46.6832 23.0286C46.8556 22.8298 46.9782 22.5911 47.0511 22.3127H48.2244C48.1581 22.7635 47.9941 23.1695 47.7322 23.5307C47.4737 23.8887 47.1307 24.1737 46.7031 24.3859C46.2789 24.5947 45.785 24.6991 45.2216 24.6991ZM53.0419 24.6991C52.3525 24.6991 51.7476 24.535 51.2273 24.2069C50.7102 23.8788 50.3059 23.4197 50.0142 22.8298C49.7258 22.2398 49.5817 21.5504 49.5817 20.7616C49.5817 19.9661 49.7258 19.2717 50.0142 18.6785C50.3059 18.0852 50.7102 17.6245 51.2273 17.2964C51.7476 16.9682 52.3525 16.8042 53.0419 16.8042C53.7313 16.8042 54.3345 16.9682 54.8515 17.2964C55.3719 17.6245 55.7763 18.0852 56.0646 18.6785C56.3563 19.2717 56.5021 19.9661 56.5021 20.7616C56.5021 21.5504 56.3563 22.2398 56.0646 22.8298C55.7763 23.4197 55.3719 23.8788 54.8515 24.2069C54.3345 24.535 53.7313 24.6991 53.0419 24.6991ZM53.0419 23.6451C53.5656 23.6451 53.9964 23.5109 54.3345 23.2424C54.6726 22.9739 54.9228 22.6209 55.0852 22.1834C55.2476 21.7459 55.3288 21.272 55.3288 20.7616C55.3288 20.2512 55.2476 19.7755 55.0852 19.3347C54.9228 18.8939 54.6726 18.5376 54.3345 18.2658C53.9964 17.994 53.5656 17.8582 53.0419 17.8582C52.5182 17.8582 52.0873 17.994 51.7493 18.2658C51.4112 18.5376 51.161 18.8939 50.9986 19.3347C50.8362 19.7755 50.755 20.2512 50.755 20.7616C50.755 21.272 50.8362 21.7459 50.9986 22.1834C51.161 22.6209 51.4112 22.9739 51.7493 23.2424C52.0873 23.5109 52.5182 23.6451 53.0419 23.6451ZM59.4664 19.9462V24.54H58.2931V16.9036H59.4267V18.0968H59.5261C59.7051 17.709 59.9768 17.3975 60.3414 17.1621C60.706 16.9235 61.1767 16.8042 61.7534 16.8042C62.2704 16.8042 62.7228 16.9102 63.1106 17.1224C63.4984 17.3312 63.8 17.6494 64.0154 18.0769C64.2309 18.5012 64.3386 19.0381 64.3386 19.6877V24.54H63.1653V19.7673C63.1653 19.1673 63.0095 18.7 62.698 18.3653C62.3864 18.0272 61.9589 17.8582 61.4153 17.8582C61.0408 17.8582 60.706 17.9394 60.411 18.1018C60.1194 18.2642 59.889 18.5012 59.72 18.8127C59.5509 19.1243 59.4664 19.5021 59.4664 19.9462ZM71.8917 18.6138L70.8377 18.9121C70.7714 18.7365 70.6736 18.5658 70.5444 18.4001C70.4184 18.231 70.2461 18.0918 70.0273 17.9824C69.8086 17.8731 69.5285 17.8184 69.1871 17.8184C68.7198 17.8184 68.3304 17.9261 68.0188 18.1415C67.7106 18.3537 67.5564 18.6238 67.5564 18.9519C67.5564 19.2436 67.6625 19.4739 67.8746 19.643C68.0868 19.812 68.4182 19.9529 68.8689 20.0655L70.0025 20.344C70.6852 20.5097 71.194 20.7632 71.5288 21.1046C71.8635 21.4427 72.0309 21.8785 72.0309 22.4121C72.0309 22.8496 71.9049 23.2407 71.653 23.5854C71.4045 23.9301 71.0564 24.2019 70.609 24.4008C70.1616 24.5996 69.6412 24.6991 69.0479 24.6991C68.269 24.6991 67.6244 24.53 67.114 24.192C66.6036 23.8539 66.2804 23.3601 66.1445 22.7104L67.2582 22.432C67.3642 22.843 67.5647 23.1512 67.8597 23.3567C68.158 23.5622 68.5475 23.665 69.028 23.665C69.5749 23.665 70.0091 23.549 70.3306 23.317C70.6554 23.0816 70.8178 22.7999 70.8178 22.4718C70.8178 22.2066 70.725 21.9846 70.5394 21.8056C70.3538 21.6233 70.0688 21.4874 69.6843 21.3979L68.4116 21.0996C67.7122 20.9339 67.1985 20.6771 66.8704 20.329C66.5456 19.9777 66.3832 19.5386 66.3832 19.0116C66.3832 18.5807 66.5041 18.1995 66.7461 17.8681C66.9913 17.5367 67.3244 17.2765 67.7454 17.0876C68.1696 16.8986 68.6502 16.8042 69.1871 16.8042C69.9428 16.8042 70.5361 16.9699 70.967 17.3013C71.4011 17.6328 71.7094 18.0703 71.8917 18.6138ZM76.9987 24.6991C76.2629 24.6991 75.6282 24.5367 75.0946 24.2119C74.5643 23.8837 74.155 23.4263 73.8666 22.8397C73.5816 22.2497 73.4391 21.5637 73.4391 20.7815C73.4391 19.9993 73.5816 19.3099 73.8666 18.7133C74.155 18.1134 74.556 17.646 75.0698 17.3113C75.5868 16.9732 76.19 16.8042 76.8794 16.8042C77.2772 16.8042 77.6699 16.8705 78.0577 17.003C78.4455 17.1356 78.7985 17.3511 79.1166 17.6494C79.4348 17.9443 79.6884 18.3354 79.8773 18.8226C80.0662 19.3099 80.1607 19.9098 80.1607 20.6224V21.1195H74.2743V20.1053H78.9675C78.9675 19.6744 78.8813 19.29 78.709 18.9519C78.5399 18.6138 78.298 18.347 77.9831 18.1515C77.6716 17.9559 77.3037 17.8582 76.8794 17.8582C76.4121 17.8582 76.0077 17.9742 75.6664 18.2062C75.3283 18.4349 75.0681 18.7332 74.8858 19.1011C74.7035 19.469 74.6124 19.8634 74.6124 20.2843V20.9604C74.6124 21.5371 74.7118 22.026 74.9107 22.4271C75.1129 22.8248 75.3929 23.128 75.7509 23.3369C76.1088 23.5423 76.5248 23.6451 76.9987 23.6451C77.307 23.6451 77.5854 23.602 77.834 23.5158C78.0859 23.4263 78.303 23.2938 78.4852 23.1181C78.6675 22.9391 78.8084 22.7171 78.9078 22.4519L80.0414 22.7701C79.922 23.1546 79.7215 23.4926 79.4398 23.7843C79.1581 24.0726 78.8101 24.298 78.3958 24.4604C77.9815 24.6195 77.5158 24.6991 76.9987 24.6991ZM85.0477 24.6991C84.3318 24.6991 83.7154 24.53 83.1983 24.192C82.6813 23.8539 82.2835 23.3882 82.0051 22.7949C81.7267 22.2017 81.5875 21.5239 81.5875 20.7616C81.5875 19.986 81.73 19.3016 82.0151 18.7083C82.3034 18.1117 82.7045 17.646 83.2182 17.3113C83.7352 16.9732 84.3385 16.8042 85.0279 16.8042C85.5648 16.8042 86.0487 16.9036 86.4796 17.1025C86.9104 17.3013 87.2634 17.5798 87.5385 17.9377C87.8136 18.2957 87.9843 18.7133 88.0506 19.1905H86.8773C86.7878 18.8425 86.5889 18.5343 86.2807 18.2658C85.9758 17.994 85.5648 17.8582 85.0477 17.8582C84.5904 17.8582 84.1893 17.9775 83.8446 18.2161C83.5032 18.4514 83.2364 18.7845 83.0442 19.2154C82.8553 19.643 82.7608 20.1451 82.7608 20.7218C82.7608 21.3118 82.8536 21.8255 83.0392 22.263C83.2281 22.7005 83.4933 23.0402 83.8347 23.2822C84.1794 23.5241 84.5837 23.6451 85.0477 23.6451C85.3527 23.6451 85.6294 23.5921 85.878 23.486C86.1266 23.3799 86.337 23.2275 86.5094 23.0286C86.6817 22.8298 86.8044 22.5911 86.8773 22.3127H88.0506C87.9843 22.7635 87.8202 23.1695 87.5584 23.5307C87.2999 23.8887 86.9568 24.1737 86.5293 24.3859C86.105 24.5947 85.6112 24.6991 85.0477 24.6991ZM93.0868 16.9036V17.8979H89.1294V16.9036H93.0868ZM90.2828 15.0741H91.4561V22.3525C91.4561 22.6839 91.5042 22.9325 91.6003 23.0982C91.6997 23.2606 91.8257 23.37 91.9781 23.4263C92.1339 23.4794 92.298 23.5059 92.4703 23.5059C92.5996 23.5059 92.7057 23.4993 92.7885 23.486C92.8714 23.4694 92.9377 23.4562 92.9874 23.4462L93.226 24.5002C93.1465 24.53 93.0354 24.5599 92.8929 24.5897C92.7504 24.6228 92.5698 24.6394 92.351 24.6394C92.0196 24.6394 91.6948 24.5682 91.3766 24.4256C91.0617 24.2831 90.7999 24.066 90.5911 23.7744C90.3856 23.4827 90.2828 23.1148 90.2828 22.6707V15.0741ZM97.9714 24.6991C97.2356 24.6991 96.6009 24.5367 96.0673 24.2119C95.537 23.8837 95.1276 23.4263 94.8393 22.8397C94.5543 22.2497 94.4117 21.5637 94.4117 20.7815C94.4117 19.9993 94.5543 19.3099 94.8393 18.7133C95.1276 18.1134 95.5287 17.646 96.0424 17.3113C96.5595 16.9732 97.1627 16.8042 97.8521 16.8042C98.2498 16.8042 98.6426 16.8705 99.0303 17.003C99.4181 17.1356 99.7711 17.3511 100.089 17.6494C100.407 17.9443 100.661 18.3354 100.85 18.8226C101.039 19.3099 101.133 19.9098 101.133 20.6224V21.1195H95.247V20.1053H99.9401C99.9401 19.6744 99.854 19.29 99.6816 18.9519C99.5126 18.6138 99.2706 18.347 98.9558 18.1515C98.6442 17.9559 98.2763 17.8582 97.8521 17.8582C97.3848 17.8582 96.9804 17.9742 96.639 18.2062C96.3009 18.4349 96.0408 18.7332 95.8585 19.1011C95.6762 19.469 95.585 19.8634 95.585 20.2843V20.9604C95.585 21.5371 95.6845 22.026 95.8833 22.4271C96.0855 22.8248 96.3656 23.128 96.7235 23.3369C97.0815 23.5423 97.4974 23.6451 97.9714 23.6451C98.2796 23.6451 98.558 23.602 98.8066 23.5158C99.0585 23.4263 99.2756 23.2938 99.4579 23.1181C99.6402 22.9391 99.7811 22.7171 99.8805 22.4519L101.014 22.7701C100.895 23.1546 100.694 23.4926 100.412 23.7843C100.131 24.0726 99.7827 24.298 99.3684 24.4604C98.9541 24.6195 98.4884 24.6991 97.9714 24.6991ZM106.239 16.9036V17.8979H102.282V16.9036H106.239ZM103.435 15.0741H104.608V22.3525C104.608 22.6839 104.657 22.9325 104.753 23.0982C104.852 23.2606 104.978 23.37 105.13 23.4263C105.286 23.4794 105.45 23.5059 105.623 23.5059C105.752 23.5059 105.858 23.4993 105.941 23.486C106.024 23.4694 106.09 23.4562 106.14 23.4462L106.378 24.5002C106.299 24.53 106.188 24.5599 106.045 24.5897C105.903 24.6228 105.722 24.6394 105.503 24.6394C105.172 24.6394 104.847 24.5682 104.529 24.4256C104.214 24.2831 103.952 24.066 103.743 23.7744C103.538 23.4827 103.435 23.1148 103.435 22.6707V15.0741ZM112.817 21.4178V16.9036H113.99V24.54H112.817V23.2474H112.737C112.558 23.6351 112.28 23.9649 111.902 24.2367C111.524 24.5052 111.047 24.6394 110.47 24.6394C109.993 24.6394 109.568 24.535 109.197 24.3262C108.826 24.1141 108.534 23.7959 108.322 23.3717C108.11 22.9441 108.004 22.4055 108.004 21.7559V16.9036H109.177V21.6763C109.177 22.2332 109.333 22.6773 109.645 23.0087C109.96 23.3402 110.361 23.5059 110.848 23.5059C111.139 23.5059 111.436 23.4313 111.738 23.2822C112.043 23.133 112.298 22.9043 112.503 22.5961C112.712 22.2878 112.817 21.8951 112.817 21.4178ZM116.139 24.54V16.9036H117.272V18.057H117.352C117.491 17.6792 117.743 17.3726 118.108 17.1373C118.472 16.902 118.883 16.7843 119.341 16.7843C119.427 16.7843 119.534 16.786 119.664 16.7893C119.793 16.7926 119.891 16.7976 119.957 16.8042V17.9974C119.917 17.9874 119.826 17.9725 119.684 17.9526C119.544 17.9294 119.397 17.9178 119.241 17.9178C118.87 17.9178 118.538 17.9957 118.247 18.1515C117.958 18.3039 117.73 18.5161 117.561 18.7878C117.395 19.0563 117.312 19.3629 117.312 19.7076V24.54H116.139ZM3.21412 38.719C2.73022 38.719 2.29106 38.6278 1.89665 38.4455C1.50224 38.2599 1.18902 37.9931 0.957017 37.6451C0.72501 37.2938 0.609006 36.8695 0.609006 36.3724C0.609006 35.9349 0.69518 35.5802 0.867529 35.3084C1.03988 35.0333 1.27023 34.8179 1.55858 34.6621C1.84693 34.5064 2.16511 34.3904 2.51313 34.3141C2.86445 34.2346 3.21743 34.1716 3.57207 34.1252C4.03609 34.0655 4.41227 34.0208 4.70063 33.991C4.99229 33.9578 5.20441 33.9031 5.33699 33.8269C5.47288 33.7507 5.54082 33.6181 5.54082 33.4292V33.3894C5.54082 32.8989 5.40659 32.5177 5.13813 32.2459C4.87297 31.9742 4.47028 31.8383 3.93003 31.8383C3.3699 31.8383 2.93074 31.9609 2.61256 32.2062C2.29438 32.4514 2.07065 32.7133 1.94139 32.9917L0.827756 32.594C1.02662 32.1299 1.29177 31.7687 1.62321 31.5101C1.95796 31.2483 2.32255 31.066 2.71696 30.9633C3.11469 30.8572 3.50579 30.8042 3.89026 30.8042C4.13552 30.8042 4.41724 30.834 4.73543 30.8937C5.05692 30.95 5.36682 31.0677 5.66511 31.2467C5.96672 31.4256 6.21696 31.6958 6.41582 32.057C6.61469 32.4183 6.71412 32.9022 6.71412 33.5087V38.54H5.54082V37.5059H5.48117C5.40162 37.6716 5.26904 37.8489 5.08344 38.0378C4.89783 38.2268 4.65091 38.3875 4.34267 38.5201C4.03443 38.6527 3.65825 38.719 3.21412 38.719ZM3.3931 37.665C3.85711 37.665 4.24821 37.5738 4.56639 37.3915C4.88789 37.2092 5.12984 36.9739 5.29224 36.6856C5.45796 36.3972 5.54082 36.094 5.54082 35.7758V34.7019C5.49111 34.7616 5.38173 34.8163 5.2127 34.866C5.04698 34.9124 4.85474 34.9538 4.63599 34.9903C4.42056 35.0234 4.2101 35.0532 4.0046 35.0798C3.80242 35.103 3.63836 35.1228 3.51242 35.1394C3.20749 35.1792 2.92245 35.2438 2.6573 35.3333C2.39546 35.4195 2.18334 35.5504 2.02094 35.7261C1.86185 35.8984 1.7823 36.1337 1.7823 36.432C1.7823 36.8397 1.93311 37.1479 2.23472 37.3567C2.53964 37.5622 2.92577 37.665 3.3931 37.665ZM11.7392 38.6991C11.1028 38.6991 10.541 38.5383 10.0538 38.2168C9.56657 37.892 9.18541 37.4346 8.91032 36.8447C8.63523 36.2514 8.49768 35.5504 8.49768 34.7417C8.49768 33.9396 8.63523 33.2436 8.91032 32.6536C9.18541 32.0637 9.56823 31.6079 10.0588 31.2864C10.5493 30.9649 11.116 30.8042 11.759 30.8042C12.2562 30.8042 12.649 30.887 12.9373 31.0528C13.229 31.2152 13.451 31.4008 13.6035 31.6096C13.7593 31.8151 13.8803 31.9841 13.9664 32.1167H14.0659V28.3582H15.2392V38.54H14.1056V37.3667H13.9664C13.8803 37.5059 13.7576 37.6815 13.5985 37.8937C13.4394 38.1025 13.2124 38.2897 12.9174 38.4555C12.6224 38.6179 12.2297 38.6991 11.7392 38.6991ZM11.8982 37.6451C12.3689 37.6451 12.7666 37.5225 13.0914 37.2772C13.4162 37.0286 13.6632 36.6856 13.8322 36.2481C14.0012 35.8073 14.0857 35.2985 14.0857 34.7218C14.0857 34.1517 14.0029 33.6529 13.8372 33.2253C13.6714 32.7945 13.4262 32.4597 13.1014 32.2211C12.7766 31.9791 12.3755 31.8582 11.8982 31.8582C11.4011 31.8582 10.9868 31.9858 10.6553 32.241C10.3272 32.4929 10.0803 32.8359 9.91458 33.2701C9.75218 33.701 9.67097 34.1849 9.67097 34.7218C9.67097 35.2654 9.75383 35.7592 9.91955 36.2033C10.0886 36.6441 10.3372 36.9955 10.6653 37.2573C10.9967 37.5158 11.4077 37.6451 11.8982 37.6451ZM17.5509 38.54V30.9036H18.7242V38.54H17.5509ZM18.1475 29.6309C17.9188 29.6309 17.7216 29.553 17.5559 29.3972C17.3935 29.2414 17.3123 29.0542 17.3123 28.8354C17.3123 28.6167 17.3935 28.4294 17.5559 28.2736C17.7216 28.1179 17.9188 28.04 18.1475 28.04C18.3762 28.04 18.5718 28.1179 18.7342 28.2736C18.8999 28.4294 18.9828 28.6167 18.9828 28.8354C18.9828 29.0542 18.8999 29.2414 18.7342 29.3972C18.5718 29.553 18.3762 29.6309 18.1475 29.6309ZM20.8732 41.4036V30.9036H22.0067V32.1167H22.1459C22.2321 31.9841 22.3514 31.8151 22.5039 31.6096C22.6597 31.4008 22.8817 31.2152 23.1701 31.0528C23.4618 30.887 23.8562 30.8042 24.3533 30.8042C24.9963 30.8042 25.5631 30.9649 26.0536 31.2864C26.5441 31.6079 26.927 32.0637 27.202 32.6536C27.4771 33.2436 27.6147 33.9396 27.6147 34.7417C27.6147 35.5504 27.4771 36.2514 27.202 36.8447C26.927 37.4346 26.5458 37.892 26.0586 38.2168C25.5714 38.5383 25.0096 38.6991 24.3732 38.6991C23.8827 38.6991 23.4899 38.6179 23.1949 38.4555C22.9 38.2897 22.6729 38.1025 22.5138 37.8937C22.3547 37.6815 22.2321 37.5059 22.1459 37.3667H22.0465V41.4036H20.8732ZM22.0266 34.7218C22.0266 35.2985 22.1111 35.8073 22.2802 36.2481C22.4492 36.6856 22.6961 37.0286 23.0209 37.2772C23.3457 37.5225 23.7435 37.6451 24.2141 37.6451C24.7047 37.6451 25.114 37.5158 25.4421 37.2573C25.7735 36.9955 26.0221 36.6441 26.1878 36.2033C26.3569 35.7592 26.4414 35.2654 26.4414 34.7218C26.4414 34.1849 26.3585 33.701 26.1928 33.2701C26.0304 32.8359 25.7835 32.4929 25.452 32.241C25.1239 31.9858 24.7113 31.8582 24.2141 31.8582C23.7368 31.8582 23.3358 31.9791 23.011 32.2211C22.6862 32.4597 22.4409 32.7945 22.2752 33.2253C22.1095 33.6529 22.0266 34.1517 22.0266 34.7218ZM29.4045 38.54V30.9036H30.5778V38.54H29.4045ZM30.0011 29.6309C29.7724 29.6309 29.5752 29.553 29.4094 29.3972C29.247 29.2414 29.1658 29.0542 29.1658 28.8354C29.1658 28.6167 29.247 28.4294 29.4094 28.2736C29.5752 28.1179 29.7724 28.04 30.0011 28.04C30.2297 28.04 30.4253 28.1179 30.5877 28.2736C30.7534 28.4294 30.8363 28.6167 30.8363 28.8354C30.8363 29.0542 30.7534 29.2414 30.5877 29.3972C30.4253 29.553 30.2297 29.6309 30.0011 29.6309ZM38.1358 32.6138L37.0818 32.9121C37.0156 32.7365 36.9178 32.5658 36.7885 32.4001C36.6626 32.231 36.4902 32.0918 36.2715 31.9824C36.0527 31.8731 35.7727 31.8184 35.4313 31.8184C34.9639 31.8184 34.5745 31.9261 34.2629 32.1415C33.9547 32.3537 33.8006 32.6238 33.8006 32.9519C33.8006 33.2436 33.9067 33.4739 34.1188 33.643C34.3309 33.812 34.6623 33.9529 35.1131 34.0655L36.2466 34.344C36.9294 34.5097 37.4381 34.7632 37.7729 35.1046C38.1076 35.4427 38.275 35.8785 38.275 36.4121C38.275 36.8496 38.1491 37.2407 37.8972 37.5854C37.6486 37.9301 37.3006 38.2019 36.8531 38.4008C36.4057 38.5996 35.8853 38.6991 35.2921 38.6991C34.5132 38.6991 33.8685 38.53 33.3581 38.192C32.8477 37.8539 32.5245 37.3601 32.3887 36.7104L33.5023 36.432C33.6084 36.843 33.8089 37.1512 34.1039 37.3567C34.4022 37.5622 34.7916 37.665 35.2722 37.665C35.8191 37.665 36.2532 37.549 36.5747 37.317C36.8995 37.0816 37.062 36.7999 37.062 36.4718C37.062 36.2066 36.9692 35.9846 36.7835 35.8056C36.5979 35.6233 36.3129 35.4874 35.9284 35.3979L34.6557 35.0996C33.9564 34.9339 33.4426 34.6771 33.1145 34.329C32.7897 33.9777 32.6273 33.5386 32.6273 33.0116C32.6273 32.5807 32.7483 32.1995 32.9902 31.8681C33.2355 31.5367 33.5686 31.2765 33.9895 31.0876C34.4138 30.8986 34.8943 30.8042 35.4313 30.8042C36.187 30.8042 36.7802 30.9699 37.2111 31.3013C37.6453 31.6328 37.9535 32.0703 38.1358 32.6138ZM43.1435 38.6991C42.4275 38.6991 41.8111 38.53 41.294 38.192C40.777 37.8539 40.3792 37.3882 40.1008 36.7949C39.8224 36.2017 39.6832 35.5239 39.6832 34.7616C39.6832 33.986 39.8257 33.3016 40.1108 32.7083C40.3991 32.1117 40.8002 31.646 41.3139 31.3113C41.831 30.9732 42.4342 30.8042 43.1236 30.8042C43.6605 30.8042 44.1444 30.9036 44.5753 31.1025C45.0061 31.3013 45.3591 31.5798 45.6342 31.9377C45.9093 32.2957 46.08 32.7133 46.1463 33.1905H44.973C44.8835 32.8425 44.6846 32.5343 44.3764 32.2658C44.0715 31.994 43.6605 31.8582 43.1435 31.8582C42.6861 31.8582 42.285 31.9775 41.9403 32.2161C41.5989 32.4514 41.3321 32.7845 41.1399 33.2154C40.951 33.643 40.8565 34.1451 40.8565 34.7218C40.8565 35.3118 40.9493 35.8255 41.1349 36.263C41.3238 36.7005 41.589 37.0402 41.9304 37.2822C42.2751 37.5241 42.6794 37.6451 43.1435 37.6451C43.4484 37.6451 43.7251 37.5921 43.9737 37.486C44.2223 37.3799 44.4328 37.2275 44.6051 37.0286C44.7774 36.8298 44.9001 36.5911 44.973 36.3127H46.1463C46.08 36.7635 45.9159 37.1695 45.6541 37.5307C45.3956 37.8887 45.0525 38.1737 44.625 38.3859C44.2007 38.5947 43.7069 38.6991 43.1435 38.6991ZM47.8615 38.54V30.9036H49.0348V38.54H47.8615ZM48.4581 29.6309C48.2294 29.6309 48.0322 29.553 47.8665 29.3972C47.7041 29.2414 47.6229 29.0542 47.6229 28.8354C47.6229 28.6167 47.7041 28.4294 47.8665 28.2736C48.0322 28.1179 48.2294 28.04 48.4581 28.04C48.6868 28.04 48.8823 28.1179 49.0447 28.2736C49.2105 28.4294 49.2933 28.6167 49.2933 28.8354C49.2933 29.0542 49.2105 29.2414 49.0447 29.3972C48.8823 29.553 48.6868 29.6309 48.4581 29.6309ZM52.3571 33.9462V38.54H51.1838V30.9036H52.3173V32.0968H52.4167C52.5957 31.709 52.8675 31.3975 53.2321 31.1621C53.5966 30.9235 54.0673 30.8042 54.644 30.8042C55.161 30.8042 55.6134 30.9102 56.0012 31.1224C56.389 31.3312 56.6906 31.6494 56.9061 32.0769C57.1215 32.5012 57.2292 33.0381 57.2292 33.6877V38.54H56.0559V33.7673C56.0559 33.1673 55.9001 32.7 55.5886 32.3653C55.277 32.0272 54.8495 31.8582 54.3059 31.8582C53.9314 31.8582 53.5966 31.9394 53.3017 32.1018C53.01 32.2642 52.7796 32.5012 52.6106 32.8127C52.4416 33.1243 52.3571 33.5021 52.3571 33.9462ZM62.4556 41.5627C61.8888 41.5627 61.4016 41.4898 60.9939 41.344C60.5863 41.2014 60.2466 41.0125 59.9748 40.7772C59.7063 40.5452 59.4925 40.2966 59.3334 40.0315L60.2681 39.3752C60.3742 39.5144 60.5084 39.6735 60.6708 39.8525C60.8332 40.0348 61.0553 40.1922 61.337 40.3248C61.622 40.4607 61.9949 40.5286 62.4556 40.5286C63.0721 40.5286 63.5808 40.3795 63.9819 40.0812C64.3829 39.7829 64.5834 39.3155 64.5834 38.6792V37.128H64.484C64.3978 37.2673 64.2752 37.4396 64.1161 37.6451C63.9603 37.8473 63.735 38.0279 63.44 38.187C63.1483 38.3428 62.7539 38.4207 62.2567 38.4207C61.6403 38.4207 61.0868 38.2748 60.5962 37.9832C60.109 37.6915 59.7229 37.2673 59.4378 36.7104C59.1561 36.1536 59.0153 35.4775 59.0153 34.682C59.0153 33.8998 59.1528 33.2187 59.4279 32.6387C59.703 32.0554 60.0858 31.6046 60.5763 31.2864C61.0669 30.9649 61.6336 30.8042 62.2766 30.8042C62.7738 30.8042 63.1682 30.887 63.4599 31.0528C63.7548 31.2152 63.9802 31.4008 64.136 31.6096C64.2951 31.8151 64.4177 31.9841 64.5039 32.1167H64.6232V30.9036H65.7567V38.7587C65.7567 39.415 65.6076 39.9486 65.3093 40.3596C65.0143 40.7739 64.6166 41.0771 64.1161 41.2694C63.6189 41.4649 63.0654 41.5627 62.4556 41.5627ZM62.4158 37.3667C62.8865 37.3667 63.2842 37.259 63.609 37.0435C63.9338 36.8281 64.1807 36.5182 64.3498 36.1138C64.5188 35.7095 64.6033 35.2256 64.6033 34.6621C64.6033 34.1119 64.5205 33.6264 64.3547 33.2055C64.189 32.7845 63.9438 32.4548 63.6189 32.2161C63.2941 31.9775 62.8931 31.8582 62.4158 31.8582C61.9187 31.8582 61.5044 31.9841 61.1729 32.236C60.8448 32.4879 60.5979 32.826 60.4322 33.2502C60.2698 33.6744 60.1886 34.1451 60.1886 34.6621C60.1886 35.1924 60.2714 35.6614 60.4371 36.0691C60.6062 36.4735 60.8547 36.7916 61.1829 37.0236C61.5143 37.2523 61.9253 37.3667 62.4158 37.3667ZM75.0437 38.6991C74.3079 38.6991 73.6732 38.5367 73.1395 38.2119C72.6092 37.8837 72.1999 37.4263 71.9116 36.8397C71.6265 36.2497 71.484 35.5637 71.484 34.7815C71.484 33.9993 71.6265 33.3099 71.9116 32.7133C72.1999 32.1134 72.601 31.646 73.1147 31.3113C73.6317 30.9732 74.235 30.8042 74.9243 30.8042C75.3221 30.8042 75.7148 30.8705 76.1026 31.003C76.4904 31.1356 76.8434 31.3511 77.1616 31.6494C77.4797 31.9443 77.7333 32.3354 77.9222 32.8226C78.1111 33.3099 78.2056 33.9098 78.2056 34.6224V35.1195H72.3192V34.1053H77.0124C77.0124 33.6744 76.9262 33.29 76.7539 32.9519C76.5849 32.6138 76.3429 32.347 76.028 32.1515C75.7165 31.9559 75.3486 31.8582 74.9243 31.8582C74.457 31.8582 74.0527 31.9742 73.7113 32.2062C73.3732 32.4349 73.113 32.7332 72.9307 33.1011C72.7484 33.469 72.6573 33.8634 72.6573 34.2843V34.9604C72.6573 35.5371 72.7567 36.026 72.9556 36.4271C73.1578 36.8248 73.4378 37.128 73.7958 37.3369C74.1538 37.5423 74.5697 37.6451 75.0437 37.6451C75.3519 37.6451 75.6303 37.602 75.8789 37.5158C76.1308 37.4263 76.3479 37.2938 76.5302 37.1181C76.7125 36.9391 76.8533 36.7171 76.9528 36.4519L78.0863 36.7701C77.967 37.1546 77.7664 37.4926 77.4847 37.7843C77.203 38.0726 76.855 38.298 76.4407 38.4604C76.0264 38.6195 75.5607 38.6991 75.0437 38.6991ZM81.1637 28.3582V38.54H79.9904V28.3582H81.1637ZM83.3127 38.54V30.9036H84.486V38.54H83.3127ZM83.9093 29.6309C83.6806 29.6309 83.4834 29.553 83.3176 29.3972C83.1552 29.2414 83.074 29.0542 83.074 28.8354C83.074 28.6167 83.1552 28.4294 83.3176 28.2736C83.4834 28.1179 83.6806 28.04 83.9093 28.04C84.1379 28.04 84.3335 28.1179 84.4959 28.2736C84.6616 28.4294 84.7445 28.6167 84.7445 28.8354C84.7445 29.0542 84.6616 29.2414 84.4959 29.3972C84.3335 29.553 84.1379 29.6309 83.9093 29.6309ZM89.956 30.9036V31.8979H85.9986V30.9036H89.956ZM87.152 29.0741H88.3253V36.3525C88.3253 36.6839 88.3733 36.9325 88.4694 37.0982C88.5689 37.2606 88.6948 37.37 88.8473 37.4263C89.0031 37.4794 89.1671 37.5059 89.3395 37.5059C89.4687 37.5059 89.5748 37.4993 89.6577 37.486C89.7405 37.4694 89.8068 37.4562 89.8565 37.4462L90.0952 38.5002C90.0156 38.53 89.9046 38.5599 89.7621 38.5897C89.6195 38.6228 89.4389 38.6394 89.2202 38.6394C88.8887 38.6394 88.5639 38.5682 88.2457 38.4256C87.9309 38.2831 87.669 38.066 87.4602 37.7744C87.2547 37.4827 87.152 37.1148 87.152 36.6707V29.0741ZM92.576 38.6195C92.3307 38.6195 92.1203 38.5317 91.9446 38.356C91.7689 38.1804 91.6811 37.9699 91.6811 37.7246C91.6811 37.4794 91.7689 37.2689 91.9446 37.0932C92.1203 36.9176 92.3307 36.8298 92.576 36.8298C92.8212 36.8298 93.0317 36.9176 93.2074 37.0932C93.383 37.2689 93.4709 37.4794 93.4709 37.7246C93.4709 37.887 93.4294 38.0362 93.3466 38.1721C93.267 38.308 93.1593 38.4173 93.0234 38.5002C92.8908 38.5798 92.7417 38.6195 92.576 38.6195Z" fill="#6E6B6B"/>
</svg>
